<svg version="1.2" xmlns="http://www.w3.org/2000/svg" viewBox="0 0 924 924" width="924" height="924">
	<style>
		.s0 { fill: #1877f2 } 
		.s1 { fill: #ffffff } 
	</style>
	<path class="s0" d="m923.45 461.76c0-254.9-206.64-461.54-461.54-461.54-254.9 0-461.54 206.64-461.54 461.54 0 230.37 168.78 421.31 389.43 455.93v-322.52h-117.19v-133.41h117.19v-101.68c0-115.68 68.9-179.57 174.33-179.57 50.49 0 103.31 9.01 103.31 9.01v113.58h-58.2c-57.33 0-75.21 35.58-75.21 72.08v86.58h128l-20.46 133.41h-107.54v322.52c220.64-34.62 389.42-225.56 389.42-455.93z"/>
	<path class="s1" d="m641.57 595.17l20.46-133.41h-128v-86.58c0-36.5 17.88-72.08 75.21-72.08h58.2v-113.58c0 0-52.82-9.01-103.31-9.01-105.43 0-174.33 63.89-174.33 179.57v101.68h-117.19v133.41h117.19v322.52q8.94 1.4 17.93 2.45 8.99 1.06 18.02 1.76 9.02 0.7 18.07 1.05 9.04 0.35 18.09 0.35c24.54 0 48.62-1.92 72.12-5.61v-322.52z"/>
</svg>