<svg width="402" height="809" viewBox="0 0 402 809" fill="none" xmlns="http://www.w3.org/2000/svg">
<rect x="20" y="11.5" width="362" height="247.333" rx="24" fill="#FFD9E4"/>
<rect x="44" y="35.5" width="56" height="40" rx="20" fill="#FF6692"/>
<path opacity="0.4" d="M75 52.5C76.6569 52.5 78 51.1569 78 49.5C78 47.8431 76.6569 46.5 75 46.5C73.3431 46.5 72 47.8431 72 49.5C72 51.1569 73.3431 52.5 75 52.5Z" fill="#FFD9E4"/>
<path opacity="0.4" d="M76 63.5C78.7614 63.5 81 62.1569 81 60.5C81 58.8431 78.7614 57.5 76 57.5C73.2386 57.5 71 58.8431 71 60.5C71 62.1569 73.2386 63.5 76 63.5Z" fill="#FFD9E4"/>
<path d="M69 53.5C71.2091 53.5 73 51.7091 73 49.5C73 47.2909 71.2091 45.5 69 45.5C66.7909 45.5 65 47.2909 65 49.5C65 51.7091 66.7909 53.5 69 53.5Z" fill="#FFD9E4"/>
<path d="M69 64.502C72.866 64.502 76 62.7111 76 60.502C76 58.2928 72.866 56.502 69 56.502C65.134 56.502 62 58.2928 62 60.502C62 62.7111 65.134 64.502 69 64.502Z" fill="#FFD9E4"/>
<path d="M112.773 51.1136V49.8636H121.5V51.1136H117.841V61.5H116.432V51.1136H112.773ZM125.773 61.6818C124.985 61.6818 124.294 61.4943 123.699 61.1193C123.108 60.7443 122.646 60.2197 122.312 59.5455C121.983 58.8712 121.818 58.0833 121.818 57.1818C121.818 56.2727 121.983 55.4792 122.312 54.8011C122.646 54.1231 123.108 53.5966 123.699 53.2216C124.294 52.8466 124.985 52.6591 125.773 52.6591C126.561 52.6591 127.25 52.8466 127.841 53.2216C128.436 53.5966 128.898 54.1231 129.227 54.8011C129.561 55.4792 129.727 56.2727 129.727 57.1818C129.727 58.0833 129.561 58.8712 129.227 59.5455C128.898 60.2197 128.436 60.7443 127.841 61.1193C127.25 61.4943 126.561 61.6818 125.773 61.6818ZM125.773 60.4773C126.371 60.4773 126.864 60.3239 127.25 60.017C127.636 59.7102 127.922 59.3068 128.108 58.8068C128.294 58.3068 128.386 57.7652 128.386 57.1818C128.386 56.5985 128.294 56.0549 128.108 55.5511C127.922 55.0473 127.636 54.6402 127.25 54.3295C126.864 54.0189 126.371 53.8636 125.773 53.8636C125.174 53.8636 124.682 54.0189 124.295 54.3295C123.909 54.6402 123.623 55.0473 123.438 55.5511C123.252 56.0549 123.159 56.5985 123.159 57.1818C123.159 57.7652 123.252 58.3068 123.438 58.8068C123.623 59.3068 123.909 59.7102 124.295 60.017C124.682 60.3239 125.174 60.4773 125.773 60.4773ZM135.57 52.7727V53.9091H131.047V52.7727H135.57ZM132.365 50.6818H133.706V59C133.706 59.3788 133.761 59.6629 133.871 59.8523C133.984 60.0379 134.128 60.1629 134.303 60.2273C134.481 60.2879 134.668 60.3182 134.865 60.3182C135.013 60.3182 135.134 60.3106 135.229 60.2955C135.323 60.2765 135.399 60.2614 135.456 60.25L135.729 61.4545C135.638 61.4886 135.511 61.5227 135.348 61.5568C135.185 61.5947 134.979 61.6136 134.729 61.6136C134.35 61.6136 133.979 61.5322 133.615 61.3693C133.255 61.2064 132.956 60.9583 132.717 60.625C132.482 60.2917 132.365 59.8712 132.365 59.3636V50.6818ZM140.155 61.7045C139.602 61.7045 139.1 61.6004 138.649 61.392C138.198 61.1799 137.84 60.875 137.575 60.4773C137.31 60.0758 137.178 59.5909 137.178 59.0227C137.178 58.5227 137.276 58.1174 137.473 57.8068C137.67 57.4924 137.933 57.2462 138.263 57.0682C138.592 56.8902 138.956 56.7576 139.354 56.6705C139.755 56.5795 140.159 56.5076 140.564 56.4545C141.094 56.3864 141.524 56.3352 141.854 56.3011C142.187 56.2633 142.429 56.2008 142.581 56.1136C142.736 56.0265 142.814 55.875 142.814 55.6591V55.6136C142.814 55.053 142.661 54.6174 142.354 54.3068C142.051 53.9962 141.59 53.8409 140.973 53.8409C140.333 53.8409 139.831 53.9811 139.467 54.2614C139.104 54.5417 138.848 54.8409 138.7 55.1591L137.428 54.7045C137.655 54.1742 137.958 53.7614 138.337 53.4659C138.719 53.1667 139.136 52.9583 139.587 52.8409C140.041 52.7197 140.488 52.6591 140.928 52.6591C141.208 52.6591 141.53 52.6932 141.893 52.7614C142.261 52.8258 142.615 52.9602 142.956 53.1648C143.301 53.3693 143.587 53.678 143.814 54.0909C144.041 54.5038 144.155 55.0568 144.155 55.75V61.5H142.814V60.3182H142.746C142.655 60.5076 142.503 60.7102 142.291 60.9261C142.079 61.142 141.797 61.3258 141.445 61.4773C141.092 61.6288 140.662 61.7045 140.155 61.7045ZM140.359 60.5C140.89 60.5 141.337 60.3958 141.7 60.1875C142.068 59.9792 142.344 59.7102 142.53 59.3807C142.719 59.0511 142.814 58.7045 142.814 58.3409V57.1136C142.757 57.1818 142.632 57.2443 142.439 57.3011C142.25 57.3542 142.03 57.4015 141.78 57.4432C141.534 57.4811 141.293 57.5152 141.058 57.5455C140.827 57.572 140.64 57.5947 140.496 57.6136C140.147 57.6591 139.821 57.733 139.518 57.8352C139.219 57.9337 138.977 58.0833 138.791 58.2841C138.609 58.4811 138.518 58.75 138.518 59.0909C138.518 59.5568 138.691 59.9091 139.036 60.1477C139.384 60.3826 139.825 60.5 140.359 60.5ZM147.943 49.8636V61.5H146.602V49.8636H147.943ZM158.786 52.7727V53.9091H154.081V52.7727H158.786ZM155.49 61.5V51.5682C155.49 51.0682 155.607 50.6515 155.842 50.3182C156.077 49.9848 156.382 49.7348 156.757 49.5682C157.132 49.4015 157.528 49.3182 157.945 49.3182C158.274 49.3182 158.543 49.3447 158.751 49.3977C158.96 49.4508 159.115 49.5 159.217 49.5455L158.831 50.7045C158.763 50.6818 158.668 50.6534 158.547 50.6193C158.429 50.5852 158.274 50.5682 158.081 50.5682C157.638 50.5682 157.318 50.6799 157.121 50.9034C156.928 51.1269 156.831 51.4545 156.831 51.8864V61.5H155.49ZM163.851 61.6818C163.063 61.6818 162.372 61.4943 161.777 61.1193C161.186 60.7443 160.724 60.2197 160.391 59.5455C160.061 58.8712 159.896 58.0833 159.896 57.1818C159.896 56.2727 160.061 55.4792 160.391 54.8011C160.724 54.1231 161.186 53.5966 161.777 53.2216C162.372 52.8466 163.063 52.6591 163.851 52.6591C164.639 52.6591 165.328 52.8466 165.919 53.2216C166.514 53.5966 166.976 54.1231 167.305 54.8011C167.639 55.4792 167.805 56.2727 167.805 57.1818C167.805 58.0833 167.639 58.8712 167.305 59.5455C166.976 60.2197 166.514 60.7443 165.919 61.1193C165.328 61.4943 164.639 61.6818 163.851 61.6818ZM163.851 60.4773C164.449 60.4773 164.942 60.3239 165.328 60.017C165.714 59.7102 166 59.3068 166.186 58.8068C166.372 58.3068 166.464 57.7652 166.464 57.1818C166.464 56.5985 166.372 56.0549 166.186 55.5511C166 55.0473 165.714 54.6402 165.328 54.3295C164.942 54.0189 164.449 53.8636 163.851 53.8636C163.252 53.8636 162.76 54.0189 162.374 54.3295C161.987 54.6402 161.701 55.0473 161.516 55.5511C161.33 56.0549 161.237 56.5985 161.237 57.1818C161.237 57.7652 161.33 58.3068 161.516 58.8068C161.701 59.3068 161.987 59.7102 162.374 60.017C162.76 60.3239 163.252 60.4773 163.851 60.4773ZM171.193 49.8636V61.5H169.852V49.8636H171.193ZM174.99 49.8636V61.5H173.649V49.8636H174.99ZM180.991 61.6818C180.204 61.6818 179.512 61.4943 178.918 61.1193C178.327 60.7443 177.865 60.2197 177.531 59.5455C177.202 58.8712 177.037 58.0833 177.037 57.1818C177.037 56.2727 177.202 55.4792 177.531 54.8011C177.865 54.1231 178.327 53.5966 178.918 53.2216C179.512 52.8466 180.204 52.6591 180.991 52.6591C181.779 52.6591 182.469 52.8466 183.06 53.2216C183.654 53.5966 184.116 54.1231 184.446 54.8011C184.779 55.4792 184.946 56.2727 184.946 57.1818C184.946 58.0833 184.779 58.8712 184.446 59.5455C184.116 60.2197 183.654 60.7443 183.06 61.1193C182.469 61.4943 181.779 61.6818 180.991 61.6818ZM180.991 60.4773C181.59 60.4773 182.082 60.3239 182.469 60.017C182.855 59.7102 183.141 59.3068 183.327 58.8068C183.512 58.3068 183.605 57.7652 183.605 57.1818C183.605 56.5985 183.512 56.0549 183.327 55.5511C183.141 55.0473 182.855 54.6402 182.469 54.3295C182.082 54.0189 181.59 53.8636 180.991 53.8636C180.393 53.8636 179.901 54.0189 179.514 54.3295C179.128 54.6402 178.842 55.0473 178.656 55.5511C178.471 56.0549 178.378 56.5985 178.378 57.1818C178.378 57.7652 178.471 58.3068 178.656 58.8068C178.842 59.3068 179.128 59.7102 179.514 60.017C179.901 60.3239 180.393 60.4773 180.991 60.4773ZM188.673 61.5L186.014 52.7727H187.423L189.31 59.4545H189.401L191.264 52.7727H192.696L194.537 59.4318H194.628L196.514 52.7727H197.923L195.264 61.5H193.946L192.037 54.7955H191.901L189.991 61.5H188.673ZM203.058 61.6818C202.217 61.6818 201.492 61.4962 200.882 61.125C200.276 60.75 199.808 60.2273 199.479 59.5568C199.153 58.8826 198.99 58.0985 198.99 57.2045C198.99 56.3106 199.153 55.5227 199.479 54.8409C199.808 54.1553 200.267 53.6212 200.854 53.2386C201.445 52.8523 202.134 52.6591 202.922 52.6591C203.376 52.6591 203.825 52.7348 204.268 52.8864C204.712 53.0379 205.115 53.2841 205.479 53.625C205.842 53.9621 206.132 54.4091 206.348 54.9659C206.564 55.5227 206.672 56.2083 206.672 57.0227V57.5909H199.945V56.4318H205.308C205.308 55.9394 205.21 55.5 205.013 55.1136C204.82 54.7273 204.543 54.4223 204.183 54.1989C203.827 53.9754 203.407 53.8636 202.922 53.8636C202.388 53.8636 201.926 53.9962 201.536 54.2614C201.149 54.5227 200.852 54.8636 200.643 55.2841C200.435 55.7045 200.331 56.1553 200.331 56.6364V57.4091C200.331 58.0682 200.445 58.6269 200.672 59.0852C200.903 59.5398 201.223 59.8864 201.632 60.125C202.041 60.3598 202.517 60.4773 203.058 60.4773C203.411 60.4773 203.729 60.428 204.013 60.3295C204.301 60.2273 204.549 60.0758 204.757 59.875C204.965 59.6705 205.126 59.4167 205.24 59.1136L206.536 59.4773C206.399 59.9167 206.17 60.303 205.848 60.6364C205.526 60.9659 205.128 61.2235 204.655 61.4091C204.181 61.5909 203.649 61.6818 203.058 61.6818ZM208.712 61.5V52.7727H210.007V54.0909H210.098C210.257 53.6591 210.545 53.3087 210.962 53.0398C211.378 52.7708 211.848 52.6364 212.371 52.6364C212.469 52.6364 212.592 52.6383 212.74 52.642C212.888 52.6458 213 52.6515 213.075 52.6591V54.0227C213.03 54.0114 212.926 53.9943 212.763 53.9716C212.604 53.9451 212.435 53.9318 212.257 53.9318C211.833 53.9318 211.454 54.0208 211.121 54.1989C210.791 54.3731 210.53 54.6155 210.337 54.9261C210.147 55.233 210.053 55.5833 210.053 55.9773V61.5H208.712ZM220.847 54.7273L219.642 55.0682C219.566 54.8674 219.455 54.6723 219.307 54.483C219.163 54.2898 218.966 54.1307 218.716 54.0057C218.466 53.8807 218.146 53.8182 217.756 53.8182C217.222 53.8182 216.777 53.9413 216.42 54.1875C216.068 54.4299 215.892 54.7386 215.892 55.1136C215.892 55.447 216.013 55.7102 216.256 55.9034C216.498 56.0966 216.877 56.2576 217.392 56.3864L218.688 56.7045C219.468 56.8939 220.049 57.1837 220.432 57.5739C220.814 57.9602 221.006 58.4583 221.006 59.0682C221.006 59.5682 220.862 60.0152 220.574 60.4091C220.29 60.803 219.892 61.1136 219.381 61.3409C218.869 61.5682 218.275 61.6818 217.597 61.6818C216.706 61.6818 215.97 61.4886 215.386 61.1023C214.803 60.7159 214.434 60.1515 214.278 59.4091L215.551 59.0909C215.672 59.5606 215.902 59.9129 216.239 60.1477C216.58 60.3826 217.025 60.5 217.574 60.5C218.199 60.5 218.695 60.3674 219.062 60.1023C219.434 59.8333 219.619 59.5114 219.619 59.1364C219.619 58.8333 219.513 58.5795 219.301 58.375C219.089 58.1667 218.763 58.0114 218.324 57.9091L216.869 57.5682C216.07 57.3788 215.483 57.0852 215.108 56.6875C214.737 56.286 214.551 55.7841 214.551 55.1818C214.551 54.6894 214.689 54.2538 214.966 53.875C215.246 53.4962 215.627 53.1989 216.108 52.983C216.593 52.767 217.142 52.6591 217.756 52.6591C218.619 52.6591 219.297 52.8485 219.79 53.2273C220.286 53.6061 220.638 54.1061 220.847 54.7273Z" fill="#111C2D" fill-opacity="0.8"/>
<path d="M345.999 63.5C345.595 63.5 345.25 63.3562 344.964 63.0685C344.678 62.7808 344.535 62.435 344.535 62.031C344.535 61.627 344.679 61.282 344.967 60.9958C345.254 60.7097 345.6 60.5667 346.004 60.5667C346.408 60.5667 346.753 60.7105 347.039 60.9982C347.325 61.2859 347.468 61.6317 347.468 62.0357C347.468 62.4397 347.325 62.7847 347.037 63.0708C346.749 63.3569 346.403 63.5 345.999 63.5ZM345.999 56.9666C345.595 56.9666 345.25 56.8228 344.964 56.5351C344.678 56.2474 344.535 55.9016 344.535 55.4977C344.535 55.0937 344.679 54.7486 344.967 54.4625C345.254 54.1764 345.6 54.0333 346.004 54.0333C346.408 54.0333 346.753 54.1772 347.039 54.4649C347.325 54.7526 347.468 55.0984 347.468 55.5023C347.468 55.9063 347.325 56.2514 347.037 56.5375C346.749 56.8236 346.403 56.9666 345.999 56.9666ZM345.999 50.4333C345.595 50.4333 345.25 50.2895 344.964 50.0018C344.678 49.7141 344.535 49.3683 344.535 48.9643C344.535 48.5603 344.679 48.2153 344.967 47.9292C345.254 47.6431 345.6 47.5 346.004 47.5C346.408 47.5 346.753 47.6438 347.039 47.9315C347.325 48.2192 347.468 48.565 347.468 48.969C347.468 49.373 347.325 49.718 347.037 50.0042C346.749 50.2903 346.403 50.4333 345.999 50.4333Z" fill="#111C2D" fill-opacity="0.6"/>
<path d="M45.5447 158.118V154.975L54.8026 140.348H57.4233V144.822H55.8253L49.593 154.698V154.868H62.5156V158.118H45.5447ZM55.9531 162.166V157.159L55.9957 155.753V140.348H59.7244V162.166H55.9531ZM69.5745 159.183L69.436 160.355C69.3365 161.25 69.159 162.159 68.9033 163.082C68.6547 164.013 68.3919 164.868 68.115 165.65C67.838 166.431 67.6142 167.045 67.4438 167.493H64.8444C64.9438 167.059 65.0787 166.47 65.2492 165.724C65.4267 164.979 65.5972 164.14 65.7605 163.21C65.9239 162.28 66.034 161.335 66.0908 160.376L66.1654 159.183H69.5745ZM80.8734 162.464C79.4529 162.464 78.1816 162.198 77.0594 161.665C75.9373 161.126 75.046 160.387 74.3854 159.449C73.732 158.512 73.384 157.439 73.3414 156.232H77.1766C77.2477 157.127 77.6347 157.858 78.3379 158.427C79.041 158.988 79.8862 159.268 80.8734 159.268C81.6475 159.268 82.3364 159.091 82.9401 158.736C83.5438 158.381 84.0197 157.887 84.3677 157.255C84.7157 156.623 84.8862 155.902 84.879 155.092C84.8862 154.268 84.7121 153.537 84.357 152.898C84.0019 152.258 83.5154 151.758 82.8975 151.395C82.2796 151.026 81.5694 150.841 80.7668 150.841C80.1134 150.834 79.4707 150.955 78.8386 151.204C78.2065 151.452 77.7058 151.779 77.3364 152.184L73.7675 151.598L74.9075 140.348H87.5637V143.65H78.1781L77.5495 149.435H77.6773C78.0822 148.959 78.6539 148.565 79.3925 148.253C80.1312 147.933 80.9408 147.773 81.8215 147.773C83.1425 147.773 84.3215 148.086 85.3585 148.711C86.3954 149.329 87.2121 150.181 87.8087 151.268C88.4053 152.354 88.7036 153.597 88.7036 154.996C88.7036 156.438 88.3698 157.724 87.7022 158.853C87.0417 159.975 86.1219 160.859 84.943 161.506C83.7711 162.145 82.4146 162.464 80.8734 162.464ZM99.9626 162.464C98.9185 162.457 97.8994 162.276 96.905 161.921C95.9107 161.559 95.0158 160.973 94.2204 160.163C93.4249 159.346 92.7928 158.263 92.3241 156.914C91.8553 155.557 91.6245 153.878 91.6316 151.875C91.6316 150.007 91.8305 148.341 92.2282 146.878C92.6259 145.415 93.1977 144.18 93.9434 143.171C94.6891 142.155 95.5876 141.381 96.6387 140.849C97.6969 140.316 98.8795 140.05 100.186 140.05C101.557 140.05 102.772 140.319 103.83 140.859C104.895 141.399 105.754 142.138 106.408 143.075C107.061 144.006 107.466 145.057 107.622 146.229H103.734C103.535 145.39 103.127 144.723 102.509 144.226C101.898 143.721 101.124 143.469 100.186 143.469C98.6735 143.469 97.5087 144.126 96.692 145.44C95.8823 146.754 95.4739 148.558 95.4668 150.852H95.616C95.964 150.227 96.415 149.691 96.969 149.243C97.5229 148.796 98.1479 148.452 98.844 148.21C99.5471 147.961 100.289 147.837 101.071 147.837C102.349 147.837 103.496 148.143 104.512 148.753C105.534 149.364 106.344 150.206 106.941 151.278C107.537 152.344 107.832 153.565 107.825 154.943C107.832 156.378 107.505 157.667 106.845 158.81C106.184 159.947 105.264 160.841 104.085 161.495C102.906 162.148 101.532 162.471 99.9626 162.464ZM99.9413 159.268C100.715 159.268 101.408 159.08 102.019 158.704C102.629 158.327 103.112 157.819 103.468 157.18C103.823 156.541 103.997 155.824 103.99 155.028C103.997 154.247 103.826 153.54 103.478 152.908C103.137 152.276 102.665 151.775 102.061 151.406C101.458 151.037 100.769 150.852 99.9945 150.852C99.4192 150.852 98.883 150.962 98.3859 151.182C97.8887 151.403 97.4555 151.708 97.0861 152.099C96.7168 152.482 96.4256 152.93 96.2126 153.441C96.0066 153.945 95.9001 154.485 95.893 155.06C95.9001 155.82 96.0776 156.52 96.4256 157.159C96.7736 157.798 97.2531 158.309 97.8638 158.693C98.4746 159.077 99.1671 159.268 99.9413 159.268ZM111.126 162.166V159.311L118.7 151.885C119.425 151.154 120.028 150.504 120.511 149.936C120.994 149.368 121.356 148.817 121.598 148.285C121.839 147.752 121.96 147.184 121.96 146.58C121.96 145.891 121.804 145.302 121.491 144.812C121.179 144.314 120.749 143.931 120.202 143.661C119.655 143.391 119.034 143.256 118.338 143.256C117.621 143.256 116.992 143.405 116.452 143.704C115.913 143.995 115.494 144.41 115.195 144.95C114.904 145.49 114.758 146.133 114.758 146.878H110.998C110.998 145.493 111.314 144.29 111.946 143.267C112.578 142.244 113.448 141.452 114.556 140.891C115.671 140.33 116.95 140.05 118.391 140.05C119.854 140.05 121.14 140.323 122.248 140.87C123.356 141.417 124.215 142.166 124.826 143.118C125.444 144.069 125.753 145.156 125.753 146.378C125.753 147.194 125.597 147.997 125.284 148.785C124.972 149.574 124.421 150.447 123.633 151.406C122.851 152.365 121.754 153.526 120.341 154.89L116.58 158.714V158.863H126.083V162.166H111.126Z" fill="#111C2D"/>
<rect x="44.5" y="184.666" width="108" height="19" rx="9.5" stroke="#111C2D" stroke-opacity="0.1"/>
<path d="M53.3665 197.268V191.371H54.7045V197.268H53.3665ZM51.0866 194.988V193.65H56.9844V194.988H51.0866ZM58.4251 198.666V197.524L61.4549 194.554C61.7447 194.261 61.9862 194.001 62.1794 193.774C62.3725 193.547 62.5174 193.327 62.614 193.113C62.7106 192.9 62.7589 192.673 62.7589 192.432C62.7589 192.156 62.6964 191.92 62.5714 191.724C62.4464 191.525 62.2745 191.372 62.0558 191.264C61.837 191.156 61.5885 191.102 61.31 191.102C61.0231 191.102 60.7717 191.162 60.5558 191.281C60.3399 191.398 60.1723 191.564 60.0529 191.78C59.9365 191.996 59.8782 192.253 59.8782 192.551H58.374C58.374 191.997 58.5004 191.515 58.7532 191.106C59.0061 190.697 59.3541 190.381 59.7973 190.156C60.2433 189.932 60.7546 189.819 61.3313 189.819C61.9166 189.819 62.4308 189.929 62.874 190.148C63.3171 190.366 63.6609 190.666 63.9052 191.047C64.1524 191.427 64.276 191.862 64.276 192.351C64.276 192.677 64.2135 192.998 64.0885 193.314C63.9635 193.629 63.7433 193.979 63.4279 194.362C63.1154 194.746 62.6765 195.21 62.1112 195.756L60.6069 197.285V197.345H64.4081V198.666H58.4251ZM68.8903 198.785C68.2767 198.785 67.7312 198.68 67.254 198.47C66.7795 198.26 66.4045 197.967 66.129 197.592C65.8534 197.217 65.7071 196.784 65.69 196.292H67.2923C67.3065 196.528 67.3846 196.734 67.5267 196.91C67.6687 197.084 67.8577 197.219 68.0935 197.315C68.3292 197.412 68.5935 197.46 68.8861 197.46C69.1986 197.46 69.4756 197.406 69.717 197.298C69.9585 197.187 70.1474 197.034 70.2838 196.838C70.4202 196.642 70.4869 196.416 70.4841 196.16C70.4869 195.896 70.4187 195.663 70.2795 195.461C70.1403 195.26 69.9386 195.102 69.6744 194.988C69.4131 194.875 69.0977 194.818 68.7284 194.818H67.9571V193.599H68.7284C69.0324 193.599 69.298 193.547 69.5253 193.442C69.7554 193.336 69.9358 193.189 70.0665 192.998C70.1971 192.805 70.2611 192.582 70.2582 192.329C70.2611 192.082 70.2057 191.868 70.092 191.686C69.9812 191.501 69.8236 191.358 69.619 191.256C69.4173 191.153 69.1801 191.102 68.9074 191.102C68.6403 191.102 68.3932 191.15 68.1659 191.247C67.9386 191.344 67.7554 191.481 67.6162 191.66C67.477 191.836 67.4031 192.047 67.3946 192.291H65.8733C65.8846 191.802 66.0253 191.373 66.2952 191.004C66.5679 190.632 66.9315 190.342 67.3861 190.135C67.8406 189.925 68.3506 189.819 68.9159 189.819C69.4983 189.819 70.004 189.929 70.4329 190.148C70.8648 190.363 71.1986 190.655 71.4344 191.021C71.6702 191.388 71.7881 191.792 71.7881 192.236C71.7909 192.727 71.646 193.139 71.3534 193.471C71.0636 193.804 70.6829 194.021 70.2113 194.123V194.192C70.825 194.277 71.2952 194.504 71.6219 194.873C71.9514 195.24 72.1148 195.696 72.1119 196.241C72.1119 196.73 71.9727 197.167 71.6943 197.554C71.4187 197.937 71.0381 198.238 70.5523 198.457C70.0693 198.676 69.5153 198.785 68.8903 198.785ZM78.1208 197.03V196.569C78.1208 196.231 78.1918 195.92 78.3339 195.636C78.4788 195.352 78.689 195.123 78.9646 194.95C79.2401 194.777 79.5739 194.69 79.966 194.69C80.3694 194.69 80.7075 194.777 80.9802 194.95C81.2529 195.121 81.4589 195.348 81.5981 195.632C81.7401 195.916 81.8112 196.229 81.8112 196.569V197.03C81.8112 197.368 81.7401 197.679 81.5981 197.963C81.4561 198.247 81.2472 198.476 80.9717 198.649C80.6989 198.822 80.3637 198.909 79.966 198.909C79.5683 198.909 79.2316 198.822 78.9561 198.649C78.6805 198.476 78.4717 198.247 78.3296 197.963C78.1904 197.679 78.1208 197.368 78.1208 197.03ZM79.233 196.569V197.03C79.233 197.254 79.287 197.46 79.395 197.648C79.5029 197.835 79.6933 197.929 79.966 197.929C80.2416 197.929 80.4305 197.836 80.5328 197.652C80.6379 197.464 80.6904 197.257 80.6904 197.03V196.569C80.6904 196.342 80.6407 196.135 80.5413 195.947C80.4418 195.757 80.2501 195.662 79.966 195.662C79.6989 195.662 79.51 195.757 79.3992 195.947C79.2884 196.135 79.233 196.342 79.233 196.569ZM73.6847 192.035V191.575C73.6847 191.234 73.7572 190.922 73.9021 190.638C74.047 190.354 74.2572 190.126 74.5328 189.956C74.8083 189.782 75.1421 189.696 75.5342 189.696C75.9347 189.696 76.2714 189.782 76.5441 189.956C76.8197 190.126 77.0271 190.354 77.1663 190.638C77.3055 190.922 77.3751 191.234 77.3751 191.575V192.035C77.3751 192.376 77.3041 192.689 77.162 192.973C77.0228 193.254 76.8154 193.48 76.5399 193.65C76.2643 193.821 75.9291 193.906 75.5342 193.906C75.1336 193.906 74.7955 193.821 74.52 193.65C74.2472 193.48 74.0399 193.253 73.8978 192.969C73.7558 192.684 73.6847 192.373 73.6847 192.035ZM74.8055 191.575V192.035C74.8055 192.263 74.858 192.47 74.9632 192.657C75.0711 192.842 75.2614 192.934 75.5342 192.934C75.8069 192.934 75.9944 192.842 76.0967 192.657C76.2018 192.47 76.2543 192.263 76.2543 192.035V191.575C76.2543 191.348 76.2046 191.14 76.1052 190.953C76.0058 190.763 75.8154 190.667 75.5342 190.667C75.2643 190.667 75.0754 190.763 74.9674 190.953C74.8595 191.143 74.8055 191.351 74.8055 191.575ZM74.1705 198.666L80.1705 189.939H81.2359L75.2359 198.666H74.1705ZM87.8759 189.939V198.666H86.3332V189.939H87.8759ZM91.2257 198.798C90.8109 198.798 90.4373 198.724 90.1049 198.577C89.7754 198.426 89.514 198.204 89.3208 197.912C89.1305 197.619 89.0353 197.258 89.0353 196.829C89.0353 196.46 89.1035 196.155 89.2399 195.913C89.3762 195.672 89.5623 195.479 89.7981 195.334C90.0339 195.189 90.2995 195.079 90.595 195.006C90.8933 194.929 91.2015 194.873 91.5197 194.839C91.9032 194.8 92.2143 194.764 92.4529 194.733C92.6916 194.699 92.8649 194.648 92.9728 194.579C93.0836 194.508 93.139 194.399 93.139 194.251V194.226C93.139 193.905 93.0438 193.656 92.8535 193.48C92.6632 193.304 92.389 193.216 92.0311 193.216C91.6532 193.216 91.3535 193.298 91.1319 193.463C90.9132 193.628 90.7654 193.822 90.6887 194.047L89.2484 193.842C89.362 193.444 89.5495 193.112 89.8109 192.845C90.0723 192.575 90.3919 192.373 90.7697 192.24C91.1475 192.104 91.5652 192.035 92.0225 192.035C92.3379 192.035 92.6518 192.072 92.9643 192.146C93.2768 192.22 93.5623 192.342 93.8208 192.513C94.0794 192.68 94.2867 192.909 94.443 193.199C94.6021 193.488 94.6816 193.851 94.6816 194.285V198.666H93.1987V197.767H93.1475C93.0538 197.949 92.9217 198.119 92.7512 198.278C92.5836 198.434 92.372 198.561 92.1163 198.657C91.8635 198.751 91.5666 198.798 91.2257 198.798ZM91.6262 197.665C91.9359 197.665 92.2044 197.604 92.4316 197.481C92.6589 197.356 92.8336 197.192 92.9558 196.987C93.0808 196.782 93.1433 196.559 93.1433 196.318V195.547C93.095 195.586 93.0126 195.623 92.8961 195.657C92.7825 195.692 92.6546 195.721 92.5126 195.747C92.3706 195.773 92.2299 195.795 92.0907 195.815C91.9515 195.835 91.8308 195.852 91.7285 195.866C91.4984 195.898 91.2924 195.949 91.1106 196.02C90.9288 196.091 90.7853 196.19 90.6802 196.318C90.5751 196.443 90.5225 196.605 90.5225 196.804C90.5225 197.088 90.6262 197.302 90.8336 197.447C91.041 197.592 91.3052 197.665 91.6262 197.665ZM101.286 193.851L99.8798 194.004C99.84 193.862 99.7704 193.729 99.671 193.604C99.5744 193.479 99.4437 193.378 99.279 193.301C99.1142 193.224 98.9125 193.186 98.6738 193.186C98.3528 193.186 98.0829 193.256 97.8642 193.395C97.6483 193.534 97.5417 193.714 97.5446 193.936C97.5417 194.126 97.6113 194.281 97.7534 194.4C97.8983 194.52 98.1369 194.618 98.4693 194.694L99.5858 194.933C100.205 195.067 100.665 195.278 100.966 195.568C101.27 195.858 101.424 196.237 101.427 196.706C101.424 197.118 101.303 197.481 101.064 197.797C100.829 198.109 100.501 198.354 100.08 198.53C99.6596 198.706 99.1767 198.794 98.6312 198.794C97.8301 198.794 97.1852 198.626 96.6966 198.291C96.2079 197.953 95.9167 197.483 95.823 196.881L97.3273 196.736C97.3954 197.031 97.5403 197.254 97.7619 197.405C97.9835 197.555 98.2719 197.631 98.627 197.631C98.9935 197.631 99.2875 197.555 99.5091 197.405C99.7335 197.254 99.8457 197.068 99.8457 196.846C99.8457 196.659 99.7733 196.504 99.6284 196.382C99.4863 196.26 99.2648 196.166 98.9636 196.101L97.8471 195.866C97.2193 195.736 96.7548 195.515 96.4537 195.206C96.1525 194.893 96.0034 194.498 96.0062 194.021C96.0034 193.618 96.1128 193.268 96.3344 192.973C96.5588 192.675 96.8699 192.444 97.2676 192.282C97.6682 192.118 98.1298 192.035 98.6525 192.035C99.4196 192.035 100.023 192.199 100.464 192.525C100.907 192.852 101.181 193.294 101.286 193.851ZM105.847 192.121V193.314H102.084V192.121H105.847ZM103.013 190.552H104.556V196.697C104.556 196.905 104.587 197.064 104.65 197.175C104.715 197.282 104.8 197.356 104.905 197.396C105.011 197.436 105.127 197.456 105.255 197.456C105.351 197.456 105.44 197.449 105.519 197.434C105.601 197.42 105.664 197.407 105.707 197.396L105.966 198.602C105.884 198.631 105.766 198.662 105.613 198.696C105.462 198.73 105.278 198.75 105.059 198.756C104.672 198.767 104.324 198.709 104.015 198.581C103.705 198.45 103.459 198.248 103.278 197.976C103.099 197.703 103.011 197.362 103.013 196.953V190.552ZM109.874 198.666V192.121H111.348V193.233H111.425C111.561 192.858 111.787 192.565 112.103 192.355C112.418 192.142 112.794 192.035 113.232 192.035C113.675 192.035 114.049 192.143 114.353 192.359C114.659 192.572 114.875 192.863 115 193.233H115.068C115.213 192.869 115.458 192.579 115.801 192.363C116.148 192.145 116.559 192.035 117.033 192.035C117.635 192.035 118.127 192.226 118.507 192.606C118.888 192.987 119.078 193.542 119.078 194.273V198.666H117.532V194.511C117.532 194.105 117.424 193.808 117.208 193.621C116.992 193.43 116.728 193.335 116.415 193.335C116.043 193.335 115.752 193.452 115.541 193.684C115.334 193.915 115.23 194.214 115.23 194.584V198.666H113.718V194.447C113.718 194.109 113.615 193.839 113.411 193.638C113.209 193.436 112.945 193.335 112.618 193.335C112.397 193.335 112.195 193.392 112.013 193.506C111.831 193.616 111.686 193.774 111.578 193.979C111.47 194.18 111.416 194.416 111.416 194.686V198.666H109.874ZM123.379 198.794C122.739 198.794 122.185 198.653 121.717 198.372C121.248 198.091 120.884 197.697 120.626 197.192C120.37 196.686 120.242 196.095 120.242 195.419C120.242 194.743 120.37 194.15 120.626 193.642C120.884 193.133 121.248 192.738 121.717 192.457C122.185 192.176 122.739 192.035 123.379 192.035C124.018 192.035 124.572 192.176 125.04 192.457C125.509 192.738 125.871 193.133 126.127 193.642C126.386 194.15 126.515 194.743 126.515 195.419C126.515 196.095 126.386 196.686 126.127 197.192C125.871 197.697 125.509 198.091 125.04 198.372C124.572 198.653 124.018 198.794 123.379 198.794ZM123.387 197.558C123.734 197.558 124.023 197.463 124.256 197.273C124.489 197.079 124.663 196.821 124.776 196.497C124.893 196.173 124.951 195.812 124.951 195.415C124.951 195.014 124.893 194.652 124.776 194.328C124.663 194.001 124.489 193.741 124.256 193.548C124.023 193.355 123.734 193.258 123.387 193.258C123.032 193.258 122.736 193.355 122.501 193.548C122.268 193.741 122.093 194.001 121.977 194.328C121.863 194.652 121.806 195.014 121.806 195.415C121.806 195.812 121.863 196.173 121.977 196.497C122.093 196.821 122.268 197.079 122.501 197.273C122.736 197.463 123.032 197.558 123.387 197.558ZM129.247 194.831V198.666H127.704V192.121H129.179V193.233H129.255C129.406 192.866 129.646 192.575 129.975 192.359C130.308 192.143 130.718 192.035 131.207 192.035C131.659 192.035 132.052 192.132 132.387 192.325C132.725 192.518 132.987 192.798 133.172 193.165C133.359 193.531 133.451 193.976 133.448 194.498V198.666H131.906V194.737C131.906 194.3 131.792 193.957 131.565 193.71C131.341 193.463 131.029 193.339 130.632 193.339C130.362 193.339 130.122 193.399 129.912 193.518C129.704 193.635 129.541 193.804 129.422 194.025C129.305 194.247 129.247 194.515 129.247 194.831ZM138.165 192.121V193.314H134.402V192.121H138.165ZM135.331 190.552H136.874V196.697C136.874 196.905 136.905 197.064 136.968 197.175C137.033 197.282 137.118 197.356 137.223 197.396C137.328 197.436 137.445 197.456 137.573 197.456C137.669 197.456 137.757 197.449 137.837 197.434C137.919 197.42 137.982 197.407 138.025 197.396L138.284 198.602C138.202 198.631 138.084 198.662 137.931 198.696C137.78 198.73 137.596 198.75 137.377 198.756C136.99 198.767 136.642 198.709 136.333 198.581C136.023 198.45 135.777 198.248 135.596 197.976C135.417 197.703 135.328 197.362 135.331 196.953V190.552ZM141.019 194.831V198.666H139.476V189.939H140.984V193.233H141.061C141.215 192.863 141.452 192.572 141.773 192.359C142.097 192.143 142.509 192.035 143.009 192.035C143.463 192.035 143.859 192.131 144.197 192.321C144.536 192.511 144.797 192.79 144.982 193.156C145.169 193.523 145.263 193.97 145.263 194.498V198.666H143.72V194.737C143.72 194.297 143.607 193.954 143.379 193.71C143.155 193.463 142.84 193.339 142.433 193.339C142.161 193.339 141.916 193.399 141.7 193.518C141.487 193.635 141.32 193.804 141.197 194.025C141.078 194.247 141.019 194.515 141.019 194.831Z" fill="#111C2D" fill-opacity="0.4"/>
<path d="M254 136.666C254 134.457 255.791 132.666 258 132.666V132.666C260.209 132.666 262 134.457 262 136.666V165.666C262 167.875 260.209 169.666 258 169.666V169.666C255.791 169.666 254 167.875 254 165.666V136.666Z" fill="#111C2D" fill-opacity="0.1"/>
<path d="M254 179.666C254 177.457 255.791 175.666 258 175.666V175.666C260.209 175.666 262 177.457 262 179.666V212.666C262 214.875 260.209 216.666 258 216.666V216.666C255.791 216.666 254 214.875 254 212.666V179.666Z" fill="#FF6692"/>
<path d="M278 152.666C278 150.457 279.791 148.666 282 148.666V148.666C284.209 148.666 286 150.457 286 152.666V174.666C286 176.875 284.209 178.666 282 178.666V178.666C279.791 178.666 278 176.875 278 174.666V152.666Z" fill="#111C2D" fill-opacity="0.1"/>
<path d="M278 188.666C278 186.457 279.791 184.666 282 184.666V184.666C284.209 184.666 286 186.457 286 188.666V212.666C286 214.875 284.209 216.666 282 216.666V216.666C279.791 216.666 278 214.875 278 212.666V188.666Z" fill="#FF6692"/>
<path d="M302 142.666C302 140.457 303.791 138.666 306 138.666V138.666C308.209 138.666 310 140.457 310 142.666V174.666C310 176.875 308.209 178.666 306 178.666V178.666C303.791 178.666 302 176.875 302 174.666V142.666Z" fill="#111C2D" fill-opacity="0.1"/>
<path d="M302 188.666C302 186.457 303.791 184.666 306 184.666V184.666C308.209 184.666 310 186.457 310 188.666V212.666C310 214.875 308.209 216.666 306 216.666V216.666C303.791 216.666 302 214.875 302 212.666V188.666Z" fill="#FF6692"/>
<path d="M326 131.666C326 129.457 327.791 127.666 330 127.666V127.666C332.209 127.666 334 129.457 334 131.666V157.666C334 159.875 332.209 161.666 330 161.666V161.666C327.791 161.666 326 159.875 326 157.666V131.666Z" fill="#111C2D" fill-opacity="0.1"/>
<path d="M326 171.666C326 169.457 327.791 167.666 330 167.666V167.666C332.209 167.666 334 169.457 334 171.666V212.666C334 214.875 332.209 216.666 330 216.666V216.666C327.791 216.666 326 214.875 326 212.666V171.666Z" fill="#FF6692"/>
<path d="M350 135.666C350 133.457 351.791 131.666 354 131.666V131.666C356.209 131.666 358 133.457 358 135.666V168.666C358 170.875 356.209 172.666 354 172.666V172.666C351.791 172.666 350 170.875 350 168.666V135.666Z" fill="#111C2D" fill-opacity="0.1"/>
<path d="M350 182.666C350 180.457 351.791 178.666 354 178.666V178.666C356.209 178.666 358 180.457 358 182.666V212.666C358 214.875 356.209 216.666 354 216.666V216.666C351.791 216.666 350 214.875 350 212.666V182.666Z" fill="#FF6692"/>
<rect x="20" y="280.834" width="362" height="247.333" rx="24" fill="#E7E2F3"/>
<rect x="44" y="304.834" width="56" height="40" rx="20" fill="#8965E6"/>
<path d="M67 327.834V321.834" stroke="white" stroke-width="1.5" stroke-linecap="round" stroke-linejoin="round"/>
<path d="M80.833 321.834H78.231C76.446 321.834 75 323.177 75 324.834C75 326.491 76.447 327.834 78.23 327.834H80.833C80.917 327.834 80.958 327.834 80.993 327.832C81.533 327.799 81.963 327.4 81.998 326.899C82 326.867 82 326.828 82 326.751V322.917C82 322.84 82 322.801 81.998 322.769C81.962 322.268 81.533 321.869 80.993 321.836C80.959 321.834 80.917 321.834 80.833 321.834Z" stroke="white" stroke-width="1.5"/>
<path opacity="0.5" d="M80.965 321.834C80.887 319.962 80.637 318.814 79.828 318.006C78.657 316.834 76.771 316.834 73 316.834H70C66.229 316.834 64.343 316.834 63.172 318.006C62 319.177 62 321.063 62 324.834C62 328.605 62 330.491 63.172 331.662C64.343 332.834 66.229 332.834 70 332.834H73C76.771 332.834 78.657 332.834 79.828 331.662C80.637 330.854 80.888 329.706 80.965 327.834" stroke="white" stroke-width="1.5"/>
<path opacity="0.5" d="M77.9922 324.834H78.0012" stroke="white" stroke-width="2" stroke-linecap="round" stroke-linejoin="round"/>
<path d="M112.773 320.448V319.198H121.5V320.448H117.841V330.834H116.432V320.448H112.773ZM125.773 331.016C124.985 331.016 124.294 330.828 123.699 330.453C123.108 330.078 122.646 329.554 122.312 328.879C121.983 328.205 121.818 327.417 121.818 326.516C121.818 325.607 121.983 324.813 122.312 324.135C122.646 323.457 123.108 322.931 123.699 322.556C124.294 322.181 124.985 321.993 125.773 321.993C126.561 321.993 127.25 322.181 127.841 322.556C128.436 322.931 128.898 323.457 129.227 324.135C129.561 324.813 129.727 325.607 129.727 326.516C129.727 327.417 129.561 328.205 129.227 328.879C128.898 329.554 128.436 330.078 127.841 330.453C127.25 330.828 126.561 331.016 125.773 331.016ZM125.773 329.811C126.371 329.811 126.864 329.658 127.25 329.351C127.636 329.044 127.922 328.641 128.108 328.141C128.294 327.641 128.386 327.099 128.386 326.516C128.386 325.932 128.294 325.389 128.108 324.885C127.922 324.381 127.636 323.974 127.25 323.664C126.864 323.353 126.371 323.198 125.773 323.198C125.174 323.198 124.682 323.353 124.295 323.664C123.909 323.974 123.623 324.381 123.438 324.885C123.252 325.389 123.159 325.932 123.159 326.516C123.159 327.099 123.252 327.641 123.438 328.141C123.623 328.641 123.909 329.044 124.295 329.351C124.682 329.658 125.174 329.811 125.773 329.811ZM135.57 322.107V323.243H131.047V322.107H135.57ZM132.365 320.016H133.706V328.334C133.706 328.713 133.761 328.997 133.871 329.186C133.984 329.372 134.128 329.497 134.303 329.561C134.481 329.622 134.668 329.652 134.865 329.652C135.013 329.652 135.134 329.645 135.229 329.629C135.323 329.61 135.399 329.595 135.456 329.584L135.729 330.789C135.638 330.823 135.511 330.857 135.348 330.891C135.185 330.929 134.979 330.948 134.729 330.948C134.35 330.948 133.979 330.866 133.615 330.703C133.255 330.54 132.956 330.292 132.717 329.959C132.482 329.626 132.365 329.205 132.365 328.698V320.016ZM140.155 331.039C139.602 331.039 139.1 330.934 138.649 330.726C138.198 330.514 137.84 330.209 137.575 329.811C137.31 329.41 137.178 328.925 137.178 328.357C137.178 327.857 137.276 327.451 137.473 327.141C137.67 326.826 137.933 326.58 138.263 326.402C138.592 326.224 138.956 326.092 139.354 326.004C139.755 325.914 140.159 325.842 140.564 325.789C141.094 325.72 141.524 325.669 141.854 325.635C142.187 325.597 142.429 325.535 142.581 325.448C142.736 325.36 142.814 325.209 142.814 324.993V324.948C142.814 324.387 142.661 323.951 142.354 323.641C142.051 323.33 141.59 323.175 140.973 323.175C140.333 323.175 139.831 323.315 139.467 323.595C139.104 323.876 138.848 324.175 138.7 324.493L137.428 324.039C137.655 323.508 137.958 323.095 138.337 322.8C138.719 322.501 139.136 322.292 139.587 322.175C140.041 322.054 140.488 321.993 140.928 321.993C141.208 321.993 141.53 322.027 141.893 322.095C142.261 322.16 142.615 322.294 142.956 322.499C143.301 322.703 143.587 323.012 143.814 323.425C144.041 323.838 144.155 324.391 144.155 325.084V330.834H142.814V329.652H142.746C142.655 329.842 142.503 330.044 142.291 330.26C142.079 330.476 141.797 330.66 141.445 330.811C141.092 330.963 140.662 331.039 140.155 331.039ZM140.359 329.834C140.89 329.834 141.337 329.73 141.7 329.521C142.068 329.313 142.344 329.044 142.53 328.715C142.719 328.385 142.814 328.039 142.814 327.675V326.448C142.757 326.516 142.632 326.578 142.439 326.635C142.25 326.688 142.03 326.735 141.78 326.777C141.534 326.815 141.293 326.849 141.058 326.879C140.827 326.906 140.64 326.929 140.496 326.948C140.147 326.993 139.821 327.067 139.518 327.169C139.219 327.268 138.977 327.417 138.791 327.618C138.609 327.815 138.518 328.084 138.518 328.425C138.518 328.891 138.691 329.243 139.036 329.482C139.384 329.717 139.825 329.834 140.359 329.834ZM147.943 319.198V330.834H146.602V319.198H147.943ZM156.49 319.198V330.834H155.081V319.198H156.49ZM160.474 325.584V330.834H159.134V322.107H160.429V323.47H160.543C160.747 323.027 161.058 322.671 161.474 322.402C161.891 322.129 162.429 321.993 163.088 321.993C163.679 321.993 164.196 322.114 164.639 322.357C165.082 322.595 165.427 322.959 165.673 323.448C165.92 323.932 166.043 324.546 166.043 325.289V330.834H164.702V325.379C164.702 324.694 164.524 324.16 164.168 323.777C163.812 323.391 163.323 323.198 162.702 323.198C162.274 323.198 161.891 323.29 161.554 323.476C161.221 323.662 160.957 323.932 160.764 324.289C160.571 324.645 160.474 325.076 160.474 325.584ZM172.038 331.016C171.22 331.016 170.516 330.823 169.925 330.436C169.334 330.05 168.879 329.518 168.561 328.84C168.243 328.162 168.084 327.387 168.084 326.516C168.084 325.629 168.247 324.847 168.572 324.169C168.902 323.487 169.36 322.955 169.947 322.573C170.538 322.186 171.228 321.993 172.016 321.993C172.629 321.993 173.182 322.107 173.675 322.334C174.167 322.561 174.571 322.879 174.885 323.289C175.199 323.698 175.394 324.175 175.47 324.72H174.129C174.027 324.323 173.8 323.97 173.447 323.664C173.099 323.353 172.629 323.198 172.038 323.198C171.516 323.198 171.057 323.334 170.663 323.607C170.273 323.876 169.968 324.256 169.749 324.749C169.533 325.237 169.425 325.811 169.425 326.47C169.425 327.145 169.531 327.732 169.743 328.232C169.959 328.732 170.262 329.12 170.652 329.396C171.046 329.673 171.508 329.811 172.038 329.811C172.387 329.811 172.703 329.751 172.987 329.629C173.271 329.508 173.512 329.334 173.709 329.107C173.906 328.879 174.046 328.607 174.129 328.289H175.47C175.394 328.804 175.207 329.268 174.908 329.681C174.612 330.09 174.22 330.415 173.732 330.658C173.247 330.896 172.682 331.016 172.038 331.016ZM180.976 331.016C180.188 331.016 179.497 330.828 178.902 330.453C178.311 330.078 177.849 329.554 177.516 328.879C177.186 328.205 177.021 327.417 177.021 326.516C177.021 325.607 177.186 324.813 177.516 324.135C177.849 323.457 178.311 322.931 178.902 322.556C179.497 322.181 180.188 321.993 180.976 321.993C181.764 321.993 182.453 322.181 183.044 322.556C183.639 322.931 184.101 323.457 184.43 324.135C184.764 324.813 184.93 325.607 184.93 326.516C184.93 327.417 184.764 328.205 184.43 328.879C184.101 329.554 183.639 330.078 183.044 330.453C182.453 330.828 181.764 331.016 180.976 331.016ZM180.976 329.811C181.574 329.811 182.067 329.658 182.453 329.351C182.839 329.044 183.125 328.641 183.311 328.141C183.497 327.641 183.589 327.099 183.589 326.516C183.589 325.932 183.497 325.389 183.311 324.885C183.125 324.381 182.839 323.974 182.453 323.664C182.067 323.353 181.574 323.198 180.976 323.198C180.377 323.198 179.885 323.353 179.499 323.664C179.112 323.974 178.826 324.381 178.641 324.885C178.455 325.389 178.362 325.932 178.362 326.516C178.362 327.099 178.455 327.641 178.641 328.141C178.826 328.641 179.112 329.044 179.499 329.351C179.885 329.658 180.377 329.811 180.976 329.811ZM186.977 330.834V322.107H188.273V323.47H188.386C188.568 323.004 188.862 322.643 189.267 322.385C189.672 322.124 190.159 321.993 190.727 321.993C191.303 321.993 191.782 322.124 192.165 322.385C192.551 322.643 192.852 323.004 193.068 323.47H193.159C193.383 323.02 193.718 322.662 194.165 322.396C194.612 322.128 195.148 321.993 195.773 321.993C196.553 321.993 197.191 322.237 197.688 322.726C198.184 323.211 198.432 323.967 198.432 324.993V330.834H197.091V324.993C197.091 324.349 196.915 323.889 196.562 323.612C196.21 323.336 195.795 323.198 195.318 323.198C194.705 323.198 194.229 323.383 193.892 323.754C193.555 324.122 193.386 324.588 193.386 325.152V330.834H192.023V324.857C192.023 324.36 191.862 323.961 191.54 323.658C191.218 323.351 190.803 323.198 190.295 323.198C189.947 323.198 189.621 323.29 189.318 323.476C189.019 323.662 188.777 323.919 188.591 324.249C188.409 324.575 188.318 324.951 188.318 325.379V330.834H186.977ZM204.543 331.016C203.702 331.016 202.976 330.83 202.366 330.459C201.76 330.084 201.293 329.561 200.963 328.891C200.637 328.217 200.474 327.432 200.474 326.539C200.474 325.645 200.637 324.857 200.963 324.175C201.293 323.489 201.751 322.955 202.338 322.573C202.929 322.186 203.618 321.993 204.406 321.993C204.861 321.993 205.31 322.069 205.753 322.22C206.196 322.372 206.599 322.618 206.963 322.959C207.327 323.296 207.616 323.743 207.832 324.3C208.048 324.857 208.156 325.542 208.156 326.357V326.925H201.429V325.766H206.793C206.793 325.273 206.694 324.834 206.497 324.448C206.304 324.061 206.027 323.756 205.668 323.533C205.312 323.309 204.891 323.198 204.406 323.198C203.872 323.198 203.41 323.33 203.02 323.595C202.634 323.857 202.336 324.198 202.128 324.618C201.92 325.039 201.815 325.489 201.815 325.97V326.743C201.815 327.402 201.929 327.961 202.156 328.419C202.387 328.874 202.707 329.22 203.116 329.459C203.526 329.694 204.001 329.811 204.543 329.811C204.895 329.811 205.213 329.762 205.497 329.664C205.785 329.561 206.033 329.41 206.241 329.209C206.45 329.004 206.611 328.751 206.724 328.448L208.02 328.811C207.884 329.251 207.654 329.637 207.332 329.97C207.01 330.3 206.613 330.557 206.139 330.743C205.666 330.925 205.134 331.016 204.543 331.016Z" fill="#111C2D" fill-opacity="0.8"/>
<path d="M345.999 332.834C345.595 332.834 345.25 332.69 344.964 332.402C344.678 332.115 344.535 331.769 344.535 331.365C344.535 330.961 344.679 330.616 344.967 330.33C345.254 330.044 345.6 329.901 346.004 329.901C346.408 329.901 346.753 330.045 347.039 330.332C347.325 330.62 347.468 330.966 347.468 331.37C347.468 331.774 347.325 332.119 347.037 332.405C346.749 332.691 346.403 332.834 345.999 332.834ZM345.999 326.301C345.595 326.301 345.25 326.157 344.964 325.869C344.678 325.581 344.535 325.236 344.535 324.832C344.535 324.428 344.679 324.083 344.967 323.796C345.254 323.51 345.6 323.367 346.004 323.367C346.408 323.367 346.753 323.511 347.039 323.799C347.325 324.087 347.468 324.432 347.468 324.836C347.468 325.24 347.325 325.585 347.037 325.871C346.749 326.158 346.403 326.301 345.999 326.301ZM345.999 319.767C345.595 319.767 345.25 319.623 344.964 319.336C344.678 319.048 344.535 318.702 344.535 318.298C344.535 317.894 344.679 317.549 344.967 317.263C345.254 316.977 345.6 316.834 346.004 316.834C346.408 316.834 346.753 316.978 347.039 317.266C347.325 317.553 347.468 317.899 347.468 318.303C347.468 318.707 347.325 319.052 347.037 319.338C346.749 319.624 346.403 319.767 345.999 319.767Z" fill="#111C2D" fill-opacity="0.6"/>
<path d="M52.9702 434.227V406.955H54.7173V434.227H52.9702ZM58.0092 415.68C57.9098 414.749 57.4908 414.025 56.7521 413.506C56.0206 412.988 55.0689 412.729 53.897 412.729C53.0732 412.729 52.3665 412.853 51.777 413.102C51.1875 413.35 50.7365 413.687 50.424 414.114C50.1115 414.54 49.9517 415.026 49.9446 415.573C49.9446 416.028 50.0476 416.422 50.2536 416.756C50.4666 417.089 50.7543 417.374 51.1165 417.608C51.4787 417.835 51.88 418.027 52.3203 418.183C52.7607 418.339 53.2045 418.471 53.652 418.577L55.6974 419.089C56.5213 419.281 57.3132 419.54 58.0732 419.866C58.8402 420.193 59.5256 420.605 60.1293 421.102C60.7401 421.599 61.223 422.2 61.5781 422.903C61.9332 423.606 62.1108 424.43 62.1108 425.374C62.1108 426.653 61.7841 427.778 61.1307 428.751C60.4773 429.717 59.5327 430.474 58.2969 431.021C57.0682 431.56 55.5803 431.83 53.8331 431.83C52.1357 431.83 50.6619 431.567 49.4119 431.042C48.169 430.516 47.196 429.749 46.4929 428.741C45.7969 427.732 45.4205 426.504 45.3636 425.055H49.2521C49.3089 425.815 49.5433 426.447 49.9553 426.951C50.3672 427.455 50.9034 427.832 51.5639 428.08C52.2315 428.329 52.9773 428.453 53.8011 428.453C54.6605 428.453 55.4134 428.325 56.0597 428.07C56.7131 427.807 57.2244 427.445 57.5938 426.983C57.9631 426.514 58.1513 425.967 58.1584 425.342C58.1513 424.774 57.9844 424.305 57.6577 423.936C57.331 423.56 56.8729 423.247 56.2834 422.999C55.701 422.743 55.0192 422.516 54.2379 422.317L51.7557 421.678C49.9588 421.216 48.5384 420.516 47.4943 419.579C46.4574 418.634 45.9389 417.381 45.9389 415.818C45.9389 414.533 46.2869 413.407 46.983 412.441C47.6861 411.475 48.6413 410.726 49.8487 410.193C51.0561 409.653 52.4233 409.384 53.9503 409.384C55.4986 409.384 56.8551 409.653 58.0199 410.193C59.1918 410.726 60.1115 411.468 60.7791 412.42C61.4467 413.364 61.7912 414.451 61.8125 415.68H58.0092ZM73.1114 431.798C72.0674 431.791 71.0482 431.61 70.0539 431.255C69.0596 430.893 68.1647 430.307 67.3692 429.497C66.5738 428.68 65.9417 427.597 65.4729 426.248C65.0042 424.891 64.7733 423.212 64.7804 421.209C64.7804 419.341 64.9793 417.675 65.377 416.212C65.7748 414.749 66.3465 413.513 67.0922 412.505C67.838 411.489 68.7364 410.715 69.7875 410.183C70.8458 409.65 72.0283 409.384 73.3351 409.384C74.7059 409.384 75.9203 409.653 76.9786 410.193C78.0439 410.733 78.9033 411.472 79.5567 412.409C80.2101 413.339 80.615 414.391 80.7712 415.562H76.8827C76.6838 414.724 76.2755 414.057 75.6576 413.56C75.0468 413.055 74.2726 412.803 73.3351 412.803C71.8223 412.803 70.6576 413.46 69.8408 414.774C69.0311 416.088 68.6228 417.892 68.6157 420.186H68.7648C69.1128 419.561 69.5638 419.025 70.1178 418.577C70.6718 418.13 71.2968 417.786 71.9928 417.544C72.6959 417.295 73.4381 417.171 74.2194 417.171C75.4978 417.171 76.6448 417.477 77.6604 418.087C78.6831 418.698 79.4928 419.54 80.0894 420.612C80.686 421.678 80.9807 422.899 80.9736 424.277C80.9807 425.712 80.654 427.001 79.9935 428.144C79.333 429.281 78.4132 430.175 77.2343 430.829C76.0553 431.482 74.681 431.805 73.1114 431.798ZM73.0901 428.602C73.8642 428.602 74.5567 428.414 75.1675 428.038C75.7783 427.661 76.2613 427.153 76.6164 426.514C76.9715 425.875 77.1455 425.158 77.1384 424.362C77.1455 423.581 76.975 422.874 76.627 422.242C76.2861 421.61 75.8138 421.109 75.2101 420.74C74.6064 420.371 73.9175 420.186 73.1434 420.186C72.5681 420.186 72.0319 420.296 71.5347 420.516C71.0375 420.737 70.6043 421.042 70.235 421.433C69.8657 421.816 69.5745 422.263 69.3614 422.775C69.1554 423.279 69.0489 423.819 69.0418 424.394C69.0489 425.154 69.2265 425.854 69.5745 426.493C69.9225 427.132 70.4019 427.643 71.0127 428.027C71.6235 428.411 72.3159 428.602 73.0901 428.602ZM87.9073 428.517L87.7688 429.689C87.6694 430.584 87.4918 431.493 87.2361 432.416C86.9875 433.347 86.7248 434.202 86.4478 434.984C86.1708 435.765 85.9471 436.379 85.7766 436.827H83.1772C83.2766 436.393 83.4115 435.804 83.582 435.058C83.7596 434.313 83.93 433.474 84.0934 432.544C84.2567 431.614 84.3668 430.669 84.4236 429.71L84.4982 428.517H87.9073ZM91.8846 431.5V428.645L99.4592 421.219C100.184 420.488 100.787 419.838 101.27 419.27C101.753 418.702 102.115 418.151 102.357 417.619C102.598 417.086 102.719 416.518 102.719 415.914C102.719 415.225 102.563 414.636 102.25 414.146C101.938 413.648 101.508 413.265 100.961 412.995C100.414 412.725 99.793 412.59 99.097 412.59C98.3797 412.59 97.7511 412.739 97.2113 413.038C96.6716 413.329 96.2525 413.744 95.9542 414.284C95.663 414.824 95.5174 415.467 95.5174 416.212H91.7568C91.7568 414.827 92.0728 413.624 92.7049 412.601C93.337 411.578 94.2071 410.786 95.315 410.225C96.4301 409.664 97.7085 409.384 99.1502 409.384C100.613 409.384 101.899 409.657 103.007 410.204C104.115 410.751 104.974 411.5 105.585 412.452C106.203 413.403 106.512 414.49 106.512 415.712C106.512 416.528 106.356 417.331 106.043 418.119C105.731 418.908 105.18 419.781 104.392 420.74C103.61 421.699 102.513 422.86 101.1 424.224L97.3392 428.048V428.197H106.842V431.5H91.8846ZM117.973 431.798C116.389 431.798 114.983 431.532 113.754 430.999C112.533 430.467 111.574 429.739 110.878 428.815C110.189 427.885 109.848 426.83 109.855 425.651C109.848 424.735 110.047 423.893 110.452 423.126C110.857 422.359 111.404 421.72 112.092 421.209C112.788 420.69 113.563 420.36 114.415 420.218V420.069C113.293 419.82 112.384 419.249 111.688 418.354C110.999 417.452 110.658 416.411 110.665 415.232C110.658 414.11 110.97 413.109 111.602 412.228C112.234 411.347 113.101 410.655 114.202 410.151C115.303 409.639 116.56 409.384 117.973 409.384C119.372 409.384 120.619 409.639 121.712 410.151C122.813 410.655 123.68 411.347 124.312 412.228C124.951 413.109 125.271 414.11 125.271 415.232C125.271 416.411 124.919 417.452 124.216 418.354C123.52 419.249 122.622 419.82 121.521 420.069V420.218C122.373 420.36 123.14 420.69 123.822 421.209C124.511 421.72 125.058 422.359 125.462 423.126C125.874 423.893 126.08 424.735 126.08 425.651C126.08 426.83 125.732 427.885 125.036 428.815C124.34 429.739 123.382 430.467 122.16 430.999C120.945 431.532 119.55 431.798 117.973 431.798ZM117.973 428.751C118.79 428.751 119.5 428.613 120.104 428.336C120.707 428.052 121.176 427.654 121.51 427.143C121.844 426.631 122.014 426.042 122.021 425.374C122.014 424.678 121.833 424.064 121.478 423.531C121.13 422.991 120.651 422.569 120.04 422.263C119.436 421.958 118.747 421.805 117.973 421.805C117.192 421.805 116.496 421.958 115.885 422.263C115.274 422.569 114.791 422.991 114.436 423.531C114.088 424.064 113.918 424.678 113.925 425.374C113.918 426.042 114.081 426.631 114.415 427.143C114.749 427.647 115.217 428.041 115.821 428.325C116.432 428.609 117.149 428.751 117.973 428.751ZM117.973 418.812C118.641 418.812 119.23 418.677 119.742 418.407C120.26 418.137 120.668 417.761 120.967 417.278C121.265 416.795 121.418 416.237 121.425 415.605C121.418 414.98 121.269 414.433 120.977 413.964C120.686 413.489 120.281 413.123 119.763 412.867C119.244 412.604 118.648 412.473 117.973 412.473C117.284 412.473 116.677 412.604 116.151 412.867C115.633 413.123 115.228 413.489 114.937 413.964C114.653 414.433 114.514 414.98 114.521 415.605C114.514 416.237 114.656 416.795 114.948 417.278C115.246 417.754 115.654 418.13 116.173 418.407C116.698 418.677 117.298 418.812 117.973 418.812ZM137.347 431.915C135.593 431.915 134.087 431.472 132.83 430.584C131.58 429.689 130.618 428.4 129.943 426.717C129.276 425.026 128.942 422.991 128.942 420.612C128.949 418.233 129.286 416.209 129.954 414.54C130.629 412.864 131.591 411.585 132.841 410.705C134.098 409.824 135.6 409.384 137.347 409.384C139.094 409.384 140.597 409.824 141.854 410.705C143.111 411.585 144.073 412.864 144.741 414.54C145.415 416.216 145.753 418.24 145.753 420.612C145.753 422.999 145.415 425.037 144.741 426.727C144.073 428.411 143.111 429.696 141.854 430.584C140.604 431.472 139.102 431.915 137.347 431.915ZM137.347 428.581C138.711 428.581 139.787 427.91 140.575 426.567C141.371 425.218 141.768 423.233 141.768 420.612C141.768 418.879 141.587 417.423 141.225 416.244C140.863 415.065 140.352 414.178 139.691 413.581C139.031 412.977 138.249 412.675 137.347 412.675C135.991 412.675 134.918 413.35 134.13 414.7C133.342 416.042 132.944 418.013 132.937 420.612C132.93 422.352 133.104 423.815 133.459 425.001C133.821 426.187 134.332 427.082 134.993 427.686C135.653 428.283 136.438 428.581 137.347 428.581Z" fill="#111C2D"/>
<rect x="44.5" y="454" width="106" height="19" rx="9.5" stroke="#111C2D" stroke-opacity="0.1"/>
<path d="M53.3665 466.602V460.705H54.7045V466.602H53.3665ZM51.0866 464.322V462.984H56.9844V464.322H51.0866ZM62.2795 459.273V468H60.6985V460.811H60.6474L58.6062 462.115V460.666L60.7752 459.273H62.2795ZM67.4777 468.119C66.8442 468.119 66.2817 468.013 65.7902 467.8C65.3015 467.587 64.918 467.295 64.6396 466.926C64.364 466.554 64.2277 466.132 64.2305 465.661C64.2277 465.294 64.3072 464.957 64.4692 464.651C64.6311 464.344 64.8498 464.088 65.1254 463.884C65.4038 463.676 65.7135 463.544 66.0544 463.487V463.428C65.6055 463.328 65.2419 463.099 64.9635 462.741C64.6879 462.381 64.5515 461.964 64.5544 461.493C64.5515 461.044 64.6765 460.643 64.9294 460.291C65.1822 459.939 65.5288 459.662 65.9692 459.46C66.4095 459.256 66.9123 459.153 67.4777 459.153C68.0373 459.153 68.5359 459.256 68.9734 459.46C69.4138 459.662 69.7604 459.939 70.0132 460.291C70.2689 460.643 70.3967 461.044 70.3967 461.493C70.3967 461.964 70.2561 462.381 69.9748 462.741C69.6964 463.099 69.3371 463.328 68.8967 463.428V463.487C69.2376 463.544 69.5444 463.676 69.8172 463.884C70.0927 464.088 70.3115 464.344 70.4734 464.651C70.6382 464.957 70.7206 465.294 70.7206 465.661C70.7206 466.132 70.5814 466.554 70.303 466.926C70.0246 467.295 69.641 467.587 69.1524 467.8C68.6666 468.013 68.1084 468.119 67.4777 468.119ZM67.4777 466.901C67.8044 466.901 68.0885 466.845 68.33 466.734C68.5714 466.621 68.7589 466.462 68.8925 466.257C69.026 466.053 69.0942 465.817 69.097 465.55C69.0942 465.271 69.0217 465.026 68.8797 464.812C68.7405 464.597 68.5487 464.428 68.3044 464.305C68.0629 464.183 67.7873 464.122 67.4777 464.122C67.1652 464.122 66.8868 464.183 66.6425 464.305C66.3981 464.428 66.205 464.597 66.0629 464.812C65.9237 465.026 65.8555 465.271 65.8584 465.55C65.8555 465.817 65.9209 466.053 66.0544 466.257C66.1879 466.459 66.3754 466.616 66.6169 466.73C66.8612 466.844 67.1481 466.901 67.4777 466.901ZM67.4777 462.925C67.7447 462.925 67.9805 462.871 68.1851 462.763C68.3925 462.655 68.5558 462.504 68.6751 462.311C68.7944 462.118 68.8555 461.895 68.8584 461.642C68.8555 461.392 68.7959 461.173 68.6794 460.986C68.5629 460.795 68.401 460.649 68.1936 460.547C67.9862 460.442 67.7476 460.389 67.4777 460.389C67.2021 460.389 66.9592 460.442 66.749 460.547C66.5416 460.649 66.3797 460.795 66.2632 460.986C66.1496 461.173 66.0942 461.392 66.097 461.642C66.0942 461.895 66.151 462.118 66.2675 462.311C66.3868 462.501 66.5501 462.652 66.7575 462.763C66.9677 462.871 67.2078 462.925 67.4777 462.925ZM76.6677 466.364V465.903C76.6677 465.565 76.7387 465.254 76.8808 464.97C77.0257 464.686 77.2359 464.457 77.5114 464.284C77.787 464.111 78.1208 464.024 78.5129 464.024C78.9163 464.024 79.2543 464.111 79.5271 464.284C79.7998 464.455 80.0058 464.682 80.145 464.966C80.287 465.25 80.358 465.562 80.358 465.903V466.364C80.358 466.702 80.287 467.013 80.145 467.297C80.0029 467.581 79.7941 467.81 79.5186 467.983C79.2458 468.156 78.9106 468.243 78.5129 468.243C78.1151 468.243 77.7785 468.156 77.5029 467.983C77.2274 467.81 77.0186 467.581 76.8765 467.297C76.7373 467.013 76.6677 466.702 76.6677 466.364ZM77.7799 465.903V466.364C77.7799 466.588 77.8339 466.794 77.9418 466.982C78.0498 467.169 78.2401 467.263 78.5129 467.263C78.7884 467.263 78.9774 467.17 79.0796 466.986C79.1847 466.798 79.2373 466.591 79.2373 466.364V465.903C79.2373 465.676 79.1876 465.469 79.0882 465.281C78.9887 465.091 78.797 464.996 78.5129 464.996C78.2458 464.996 78.0569 465.091 77.9461 465.281C77.8353 465.469 77.7799 465.676 77.7799 465.903ZM72.2316 461.369V460.909C72.2316 460.568 72.3041 460.256 72.4489 459.972C72.5938 459.687 72.8041 459.46 73.0796 459.29C73.3552 459.116 73.689 459.03 74.0811 459.03C74.4816 459.03 74.8183 459.116 75.091 459.29C75.3666 459.46 75.5739 459.687 75.7132 459.972C75.8524 460.256 75.922 460.568 75.922 460.909V461.369C75.922 461.71 75.8509 462.023 75.7089 462.307C75.5697 462.588 75.3623 462.814 75.0867 462.984C74.8112 463.155 74.4759 463.24 74.0811 463.24C73.6805 463.24 73.3424 463.155 73.0668 462.984C72.7941 462.814 72.5867 462.587 72.4447 462.303C72.3026 462.018 72.2316 461.707 72.2316 461.369ZM73.3524 460.909V461.369C73.3524 461.597 73.4049 461.804 73.51 461.991C73.618 462.176 73.8083 462.268 74.0811 462.268C74.3538 462.268 74.5413 462.176 74.6436 461.991C74.7487 461.804 74.8012 461.597 74.8012 461.369V460.909C74.8012 460.682 74.7515 460.474 74.6521 460.287C74.5526 460.097 74.3623 460.001 74.0811 460.001C73.8112 460.001 73.6222 460.097 73.5143 460.287C73.4063 460.477 73.3524 460.685 73.3524 460.909ZM72.7174 468L78.7174 459.273H79.7828L73.7828 468H72.7174ZM86.4227 459.273V468H84.8801V459.273H86.4227ZM89.7725 468.132C89.3578 468.132 88.9842 468.058 88.6518 467.911C88.3223 467.76 88.0609 467.538 87.8677 467.246C87.6774 466.953 87.5822 466.592 87.5822 466.163C87.5822 465.794 87.6504 465.489 87.7867 465.247C87.9231 465.006 88.1092 464.812 88.345 464.668C88.5808 464.523 88.8464 464.413 89.1419 464.339C89.4402 464.263 89.7484 464.207 90.0666 464.173C90.4501 464.134 90.7612 464.098 90.9998 464.067C91.2385 464.033 91.4117 463.982 91.5197 463.913C91.6305 463.842 91.6859 463.733 91.6859 463.585V463.56C91.6859 463.239 91.5907 462.99 91.4004 462.814C91.21 462.638 90.9359 462.55 90.5779 462.55C90.2001 462.55 89.9004 462.632 89.6788 462.797C89.46 462.962 89.3123 463.156 89.2356 463.381L87.7953 463.176C87.9089 462.778 88.0964 462.446 88.3578 462.179C88.6191 461.909 88.9387 461.707 89.3166 461.574C89.6944 461.438 90.112 461.369 90.5694 461.369C90.8848 461.369 91.1987 461.406 91.5112 461.48C91.8237 461.554 92.1092 461.676 92.3677 461.847C92.6262 462.014 92.8336 462.243 92.9899 462.533C93.149 462.822 93.2285 463.185 93.2285 463.619V468H91.7456V467.101H91.6944C91.6007 467.283 91.4686 467.453 91.2981 467.612C91.1305 467.768 90.9188 467.895 90.6632 467.991C90.4103 468.085 90.1135 468.132 89.7725 468.132ZM90.1731 466.999C90.4828 466.999 90.7512 466.937 90.9785 466.815C91.2058 466.69 91.3805 466.526 91.5027 466.321C91.6277 466.116 91.6902 465.893 91.6902 465.652V464.881C91.6419 464.92 91.5595 464.957 91.443 464.991C91.3294 465.026 91.2015 465.055 91.0595 465.081C90.9174 465.107 90.7768 465.129 90.6376 465.149C90.4984 465.169 90.3777 465.186 90.2754 465.2C90.0453 465.232 89.8393 465.283 89.6575 465.354C89.4757 465.425 89.3322 465.524 89.2271 465.652C89.122 465.777 89.0694 465.939 89.0694 466.138C89.0694 466.422 89.1731 466.636 89.3805 466.781C89.5879 466.926 89.8521 466.999 90.1731 466.999ZM99.8329 463.185L98.4267 463.338C98.3869 463.196 98.3173 463.062 98.2179 462.938C98.1213 462.812 97.9906 462.712 97.8258 462.635C97.6611 462.558 97.4594 462.52 97.2207 462.52C96.8997 462.52 96.6298 462.589 96.4111 462.729C96.1952 462.868 96.0886 463.048 96.0915 463.27C96.0886 463.46 96.1582 463.615 96.3003 463.734C96.4452 463.854 96.6838 463.952 97.0162 464.028L98.1327 464.267C98.752 464.401 99.2122 464.612 99.5133 464.902C99.8173 465.192 99.9707 465.571 99.9736 466.04C99.9707 466.452 99.85 466.815 99.6113 467.131C99.3756 467.443 99.0474 467.687 98.627 467.864C98.2065 468.04 97.7236 468.128 97.1781 468.128C96.377 468.128 95.7321 467.96 95.2435 467.625C94.7548 467.287 94.4636 466.817 94.3699 466.214L95.8741 466.07C95.9423 466.365 96.0872 466.588 96.3088 466.739C96.5304 466.889 96.8187 466.964 97.1738 466.964C97.5403 466.964 97.8344 466.889 98.056 466.739C98.2804 466.588 98.3926 466.402 98.3926 466.18C98.3926 465.993 98.3202 465.838 98.1753 465.716C98.0332 465.594 97.8116 465.5 97.5105 465.435L96.394 465.2C95.7662 465.07 95.3017 464.849 95.0006 464.54C94.6994 464.227 94.5503 463.832 94.5531 463.355C94.5503 462.952 94.6596 462.602 94.8812 462.307C95.1057 462.009 95.4167 461.778 95.8145 461.616C96.215 461.452 96.6767 461.369 97.1994 461.369C97.9665 461.369 98.5702 461.533 99.0105 461.859C99.4537 462.186 99.7278 462.628 99.8329 463.185ZM104.394 461.455V462.648H100.631V461.455H104.394ZM101.56 459.886H103.103V466.031C103.103 466.239 103.134 466.398 103.197 466.509C103.262 466.616 103.347 466.69 103.452 466.73C103.557 466.77 103.674 466.79 103.802 466.79C103.898 466.79 103.986 466.783 104.066 466.768C104.148 466.754 104.211 466.741 104.253 466.73L104.513 467.936C104.431 467.964 104.313 467.996 104.16 468.03C104.009 468.064 103.824 468.084 103.606 468.089C103.219 468.101 102.871 468.043 102.562 467.915C102.252 467.784 102.006 467.582 101.824 467.31C101.645 467.037 101.557 466.696 101.56 466.287V459.886ZM108.421 468V461.455H109.895V462.567H109.972C110.108 462.192 110.334 461.899 110.649 461.689C110.965 461.476 111.341 461.369 111.779 461.369C112.222 461.369 112.595 461.477 112.899 461.693C113.206 461.906 113.422 462.197 113.547 462.567H113.615C113.76 462.203 114.005 461.913 114.348 461.697C114.695 461.479 115.105 461.369 115.58 461.369C116.182 461.369 116.674 461.56 117.054 461.94C117.435 462.321 117.625 462.876 117.625 463.607V468H116.078V463.845C116.078 463.439 115.97 463.142 115.755 462.955C115.539 462.764 115.274 462.669 114.962 462.669C114.59 462.669 114.299 462.786 114.088 463.018C113.881 463.249 113.777 463.548 113.777 463.918V468H112.264V463.781C112.264 463.443 112.162 463.173 111.958 462.972C111.756 462.77 111.492 462.669 111.165 462.669C110.943 462.669 110.742 462.726 110.56 462.839C110.378 462.95 110.233 463.108 110.125 463.312C110.017 463.514 109.963 463.75 109.963 464.02V468H108.421ZM121.925 468.128C121.286 468.128 120.732 467.987 120.263 467.706C119.795 467.425 119.431 467.031 119.173 466.526C118.917 466.02 118.789 465.429 118.789 464.753C118.789 464.077 118.917 463.484 119.173 462.976C119.431 462.467 119.795 462.072 120.263 461.791C120.732 461.51 121.286 461.369 121.925 461.369C122.565 461.369 123.119 461.51 123.587 461.791C124.056 462.072 124.418 462.467 124.674 462.976C124.932 463.484 125.062 464.077 125.062 464.753C125.062 465.429 124.932 466.02 124.674 466.526C124.418 467.031 124.056 467.425 123.587 467.706C123.119 467.987 122.565 468.128 121.925 468.128ZM121.934 466.892C122.28 466.892 122.57 466.797 122.803 466.607C123.036 466.413 123.209 466.155 123.323 465.831C123.44 465.507 123.498 465.146 123.498 464.749C123.498 464.348 123.44 463.986 123.323 463.662C123.209 463.335 123.036 463.075 122.803 462.882C122.57 462.689 122.28 462.592 121.934 462.592C121.579 462.592 121.283 462.689 121.048 462.882C120.815 463.075 120.64 463.335 120.523 463.662C120.41 463.986 120.353 464.348 120.353 464.749C120.353 465.146 120.41 465.507 120.523 465.831C120.64 466.155 120.815 466.413 121.048 466.607C121.283 466.797 121.579 466.892 121.934 466.892ZM127.794 464.165V468H126.251V461.455H127.725V462.567H127.802C127.953 462.2 128.193 461.909 128.522 461.693C128.855 461.477 129.265 461.369 129.754 461.369C130.206 461.369 130.599 461.466 130.934 461.659C131.272 461.852 131.534 462.132 131.718 462.499C131.906 462.865 131.998 463.31 131.995 463.832V468H130.453V464.071C130.453 463.634 130.339 463.291 130.112 463.044C129.887 462.797 129.576 462.673 129.179 462.673C128.909 462.673 128.669 462.733 128.458 462.852C128.251 462.969 128.088 463.138 127.968 463.359C127.852 463.581 127.794 463.849 127.794 464.165ZM136.712 461.455V462.648H132.949V461.455H136.712ZM133.878 459.886H135.421V466.031C135.421 466.239 135.452 466.398 135.515 466.509C135.58 466.616 135.665 466.69 135.77 466.73C135.875 466.77 135.992 466.79 136.12 466.79C136.216 466.79 136.304 466.783 136.384 466.768C136.466 466.754 136.529 466.741 136.571 466.73L136.831 467.936C136.749 467.964 136.631 467.996 136.478 468.03C136.327 468.064 136.142 468.084 135.924 468.089C135.537 468.101 135.189 468.043 134.88 467.915C134.57 467.784 134.324 467.582 134.142 467.31C133.963 467.037 133.875 466.696 133.878 466.287V459.886ZM139.565 464.165V468H138.023V459.273H139.531V462.567H139.608C139.761 462.197 139.999 461.906 140.32 461.693C140.644 461.477 141.055 461.369 141.555 461.369C142.01 461.369 142.406 461.464 142.744 461.655C143.082 461.845 143.344 462.124 143.528 462.49C143.716 462.857 143.81 463.304 143.81 463.832V468H142.267V464.071C142.267 463.631 142.153 463.288 141.926 463.044C141.702 462.797 141.386 462.673 140.98 462.673C140.707 462.673 140.463 462.733 140.247 462.852C140.034 462.969 139.867 463.138 139.744 463.359C139.625 463.581 139.565 463.849 139.565 464.165Z" fill="#111C2D" fill-opacity="0.4"/>
<path d="M228 448.98C233.161 448.202 244.367 443.143 247.906 429.134C252.329 411.623 264.616 399.171 275.675 432.247C286.734 465.324 296.318 432.247 303.199 432.247C310.079 432.247 311.554 462.989 323.841 460.265C336.128 457.541 328.756 423.686 358 429.134" stroke="#8965E6" stroke-width="2"/>
<rect x="20" y="550.166" width="362" height="247.333" rx="24" fill="#BAFAF2"/>
<rect x="44" y="574.166" width="56" height="40" rx="20" fill="#00CEB6"/>
<path opacity="0.5" d="M69 601.166C66.191 601.166 64.787 601.166 63.778 600.492C63.3411 600.2 62.966 599.825 62.674 599.388C62 598.379 62 596.976 62 594.166C62 591.357 62 589.953 62.674 588.944C62.9659 588.507 63.3411 588.132 63.778 587.84C64.787 587.166 66.19 587.166 69 587.166H75C77.809 587.166 79.213 587.166 80.222 587.84C80.6589 588.132 81.0341 588.507 81.326 588.944C82 589.953 82 591.356 82 594.166C82 596.975 82 598.379 81.326 599.388C81.034 599.825 80.6589 600.2 80.222 600.492C79.213 601.166 77.81 601.166 75 601.166H69Z" stroke="white" stroke-width="1.5"/>
<path d="M72 591.166C72.7956 591.166 73.5587 591.482 74.1213 592.045C74.6839 592.607 75 593.37 75 594.166C75 594.962 74.6839 595.725 74.1213 596.287C73.5587 596.85 72.7956 597.166 72 597.166C71.2044 597.166 70.4413 596.85 69.8787 596.287C69.3161 595.725 69 594.962 69 594.166C69 593.37 69.3161 592.607 69.8787 592.045C70.4413 591.482 71.2044 591.166 72 591.166Z" stroke="white" stroke-width="1.5"/>
<path d="M65.5 597.166V591.166M78.5 597.166V591.166" stroke="white" stroke-width="1.5" stroke-linecap="round"/>
<path d="M122.773 592.166H121.364C121.28 591.761 121.134 591.405 120.926 591.098C120.722 590.791 120.472 590.533 120.176 590.325C119.884 590.113 119.561 589.954 119.205 589.848C118.848 589.742 118.477 589.689 118.091 589.689C117.386 589.689 116.748 589.867 116.176 590.223C115.608 590.579 115.155 591.104 114.818 591.797C114.485 592.49 114.318 593.34 114.318 594.348C114.318 595.355 114.485 596.206 114.818 596.899C115.155 597.592 115.608 598.117 116.176 598.473C116.748 598.829 117.386 599.007 118.091 599.007C118.477 599.007 118.848 598.954 119.205 598.848C119.561 598.742 119.884 598.585 120.176 598.376C120.472 598.164 120.722 597.905 120.926 597.598C121.134 597.287 121.28 596.931 121.364 596.53H122.773C122.667 597.124 122.473 597.657 122.193 598.126C121.913 598.596 121.564 598.996 121.148 599.325C120.731 599.651 120.263 599.899 119.744 600.069C119.229 600.24 118.678 600.325 118.091 600.325C117.098 600.325 116.216 600.083 115.443 599.598C114.67 599.113 114.063 598.424 113.619 597.53C113.176 596.636 112.955 595.575 112.955 594.348C112.955 593.121 113.176 592.06 113.619 591.166C114.063 590.272 114.67 589.583 115.443 589.098C116.216 588.613 117.098 588.371 118.091 588.371C118.678 588.371 119.229 588.456 119.744 588.626C120.263 588.797 120.731 589.047 121.148 589.376C121.564 589.702 121.913 590.1 122.193 590.569C122.473 591.035 122.667 591.568 122.773 592.166ZM130.368 596.598V591.439H131.709V600.166H130.368V598.689H130.277C130.072 599.132 129.754 599.509 129.322 599.819C128.891 600.126 128.345 600.28 127.686 600.28C127.141 600.28 126.656 600.16 126.232 599.922C125.807 599.679 125.474 599.316 125.232 598.831C124.989 598.342 124.868 597.727 124.868 596.984V591.439H126.209V596.893C126.209 597.53 126.387 598.037 126.743 598.416C127.103 598.795 127.561 598.984 128.118 598.984C128.451 598.984 128.79 598.899 129.135 598.729C129.483 598.558 129.775 598.297 130.01 597.944C130.249 597.592 130.368 597.143 130.368 596.598ZM134.165 600.166V591.439H135.46V592.757H135.551C135.71 592.325 135.998 591.975 136.415 591.706C136.831 591.437 137.301 591.302 137.824 591.302C137.922 591.302 138.045 591.304 138.193 591.308C138.341 591.312 138.453 591.318 138.528 591.325V592.689C138.483 592.677 138.379 592.66 138.216 592.638C138.057 592.611 137.888 592.598 137.71 592.598C137.286 592.598 136.907 592.687 136.574 592.865C136.244 593.039 135.983 593.282 135.79 593.592C135.6 593.899 135.506 594.249 135.506 594.643V600.166H134.165ZM140.118 600.166V591.439H141.413V592.757H141.504C141.663 592.325 141.951 591.975 142.368 591.706C142.785 591.437 143.254 591.302 143.777 591.302C143.875 591.302 143.999 591.304 144.146 591.308C144.294 591.312 144.406 591.318 144.482 591.325V592.689C144.436 592.677 144.332 592.66 144.169 592.638C144.01 592.611 143.841 592.598 143.663 592.598C143.239 592.598 142.86 592.687 142.527 592.865C142.197 593.039 141.936 593.282 141.743 593.592C141.554 593.899 141.459 594.249 141.459 594.643V600.166H140.118ZM149.464 600.348C148.624 600.348 147.898 600.162 147.288 599.791C146.682 599.416 146.214 598.893 145.885 598.223C145.559 597.549 145.396 596.765 145.396 595.871C145.396 594.977 145.559 594.189 145.885 593.507C146.214 592.821 146.673 592.287 147.26 591.905C147.851 591.518 148.54 591.325 149.328 591.325C149.783 591.325 150.232 591.401 150.675 591.552C151.118 591.704 151.521 591.95 151.885 592.291C152.249 592.628 152.538 593.075 152.754 593.632C152.97 594.189 153.078 594.874 153.078 595.689V596.257H146.351V595.098H151.714C151.714 594.605 151.616 594.166 151.419 593.78C151.226 593.393 150.949 593.088 150.589 592.865C150.233 592.641 149.813 592.53 149.328 592.53C148.794 592.53 148.332 592.662 147.942 592.927C147.555 593.189 147.258 593.53 147.05 593.95C146.841 594.371 146.737 594.821 146.737 595.302V596.075C146.737 596.734 146.851 597.293 147.078 597.751C147.309 598.206 147.629 598.552 148.038 598.791C148.447 599.026 148.923 599.143 149.464 599.143C149.817 599.143 150.135 599.094 150.419 598.996C150.707 598.893 150.955 598.742 151.163 598.541C151.372 598.336 151.533 598.083 151.646 597.78L152.942 598.143C152.805 598.583 152.576 598.969 152.254 599.302C151.932 599.632 151.535 599.89 151.061 600.075C150.588 600.257 150.055 600.348 149.464 600.348ZM156.459 594.916V600.166H155.118V591.439H156.413V592.802H156.527C156.732 592.359 157.042 592.003 157.459 591.734C157.875 591.461 158.413 591.325 159.072 591.325C159.663 591.325 160.18 591.446 160.624 591.689C161.067 591.927 161.411 592.291 161.658 592.78C161.904 593.265 162.027 593.878 162.027 594.621V600.166H160.686V594.711C160.686 594.026 160.508 593.492 160.152 593.109C159.796 592.723 159.307 592.53 158.686 592.53C158.258 592.53 157.875 592.622 157.538 592.808C157.205 592.994 156.942 593.265 156.749 593.621C156.555 593.977 156.459 594.408 156.459 594.916ZM168.273 591.439V592.575H163.75V591.439H168.273ZM165.068 589.348H166.409V597.666C166.409 598.045 166.464 598.329 166.574 598.518C166.688 598.704 166.831 598.829 167.006 598.893C167.184 598.954 167.371 598.984 167.568 598.984C167.716 598.984 167.837 598.977 167.932 598.961C168.027 598.943 168.102 598.927 168.159 598.916L168.432 600.121C168.341 600.155 168.214 600.189 168.051 600.223C167.888 600.261 167.682 600.28 167.432 600.28C167.053 600.28 166.682 600.198 166.318 600.035C165.958 599.872 165.659 599.624 165.42 599.291C165.186 598.958 165.068 598.537 165.068 598.03V589.348ZM174.972 600.166V588.53H179.04C179.85 588.53 180.519 588.67 181.045 588.95C181.572 589.227 181.964 589.6 182.222 590.069C182.479 590.535 182.608 591.052 182.608 591.621C182.608 592.121 182.519 592.533 182.341 592.859C182.167 593.185 181.936 593.443 181.648 593.632C181.364 593.821 181.055 593.961 180.722 594.052V594.166C181.078 594.189 181.436 594.314 181.795 594.541C182.155 594.768 182.456 595.094 182.699 595.518C182.941 595.943 183.062 596.461 183.062 597.075C183.062 597.658 182.93 598.183 182.665 598.649C182.4 599.115 181.981 599.484 181.409 599.757C180.837 600.03 180.093 600.166 179.176 600.166H174.972ZM176.381 598.916H179.176C180.097 598.916 180.75 598.738 181.136 598.382C181.527 598.022 181.722 597.586 181.722 597.075C181.722 596.681 181.621 596.318 181.42 595.984C181.22 595.647 180.934 595.378 180.562 595.177C180.191 594.973 179.752 594.871 179.244 594.871H176.381V598.916ZM176.381 593.643H178.994C179.419 593.643 179.801 593.56 180.142 593.393C180.487 593.227 180.759 592.992 180.96 592.689C181.165 592.386 181.267 592.03 181.267 591.621C181.267 591.109 181.089 590.675 180.733 590.319C180.377 589.96 179.813 589.78 179.04 589.78H176.381V593.643ZM187.764 600.371C187.211 600.371 186.709 600.266 186.259 600.058C185.808 599.846 185.45 599.541 185.185 599.143C184.92 598.742 184.787 598.257 184.787 597.689C184.787 597.189 184.885 596.783 185.082 596.473C185.279 596.158 185.543 595.912 185.872 595.734C186.202 595.556 186.565 595.424 186.963 595.336C187.365 595.246 187.768 595.174 188.173 595.121C188.704 595.052 189.134 595.001 189.463 594.967C189.796 594.929 190.039 594.867 190.19 594.78C190.346 594.693 190.423 594.541 190.423 594.325V594.28C190.423 593.719 190.27 593.283 189.963 592.973C189.66 592.662 189.2 592.507 188.582 592.507C187.942 592.507 187.44 592.647 187.077 592.927C186.713 593.208 186.457 593.507 186.31 593.825L185.037 593.371C185.264 592.84 185.567 592.427 185.946 592.132C186.329 591.833 186.745 591.624 187.196 591.507C187.651 591.386 188.098 591.325 188.537 591.325C188.817 591.325 189.139 591.359 189.503 591.427C189.87 591.492 190.224 591.626 190.565 591.831C190.91 592.035 191.196 592.344 191.423 592.757C191.651 593.17 191.764 593.723 191.764 594.416V600.166H190.423V598.984H190.355C190.264 599.174 190.113 599.376 189.901 599.592C189.688 599.808 189.406 599.992 189.054 600.143C188.702 600.295 188.272 600.371 187.764 600.371ZM187.969 599.166C188.499 599.166 188.946 599.062 189.31 598.854C189.677 598.645 189.954 598.376 190.139 598.047C190.329 597.717 190.423 597.371 190.423 597.007V595.78C190.366 595.848 190.241 595.91 190.048 595.967C189.859 596.02 189.639 596.068 189.389 596.109C189.143 596.147 188.902 596.181 188.668 596.211C188.437 596.238 188.249 596.261 188.105 596.28C187.757 596.325 187.431 596.399 187.128 596.501C186.829 596.6 186.586 596.749 186.401 596.95C186.219 597.147 186.128 597.416 186.128 597.757C186.128 598.223 186.3 598.575 186.645 598.814C186.993 599.049 187.435 599.166 187.969 599.166ZM195.553 588.53V600.166H194.212V588.53H195.553ZM200.577 600.371C200.024 600.371 199.522 600.266 199.071 600.058C198.62 599.846 198.262 599.541 197.997 599.143C197.732 598.742 197.599 598.257 197.599 597.689C197.599 597.189 197.698 596.783 197.895 596.473C198.092 596.158 198.355 595.912 198.685 595.734C199.014 595.556 199.378 595.424 199.776 595.336C200.177 595.246 200.58 595.174 200.986 595.121C201.516 595.052 201.946 595.001 202.276 594.967C202.609 594.929 202.851 594.867 203.003 594.78C203.158 594.693 203.236 594.541 203.236 594.325V594.28C203.236 593.719 203.082 593.283 202.776 592.973C202.473 592.662 202.012 592.507 201.395 592.507C200.755 592.507 200.253 592.647 199.889 592.927C199.526 593.208 199.27 593.507 199.122 593.825L197.849 593.371C198.077 592.84 198.38 592.427 198.759 592.132C199.141 591.833 199.558 591.624 200.009 591.507C200.463 591.386 200.91 591.325 201.349 591.325C201.63 591.325 201.952 591.359 202.315 591.427C202.683 591.492 203.037 591.626 203.378 591.831C203.723 592.035 204.009 592.344 204.236 592.757C204.463 593.17 204.577 593.723 204.577 594.416V600.166H203.236V598.984H203.168C203.077 599.174 202.925 599.376 202.713 599.592C202.501 599.808 202.219 599.992 201.866 600.143C201.514 600.295 201.084 600.371 200.577 600.371ZM200.781 599.166C201.312 599.166 201.759 599.062 202.122 598.854C202.49 598.645 202.766 598.376 202.952 598.047C203.141 597.717 203.236 597.371 203.236 597.007V595.78C203.179 595.848 203.054 595.91 202.861 595.967C202.671 596.02 202.452 596.068 202.202 596.109C201.955 596.147 201.715 596.181 201.48 596.211C201.249 596.238 201.062 596.261 200.918 596.28C200.569 596.325 200.243 596.399 199.94 596.501C199.641 596.6 199.399 596.749 199.213 596.95C199.031 597.147 198.94 597.416 198.94 597.757C198.94 598.223 199.113 598.575 199.457 598.814C199.806 599.049 200.247 599.166 200.781 599.166ZM208.365 594.916V600.166H207.024V591.439H208.32V592.802H208.433C208.638 592.359 208.948 592.003 209.365 591.734C209.782 591.461 210.32 591.325 210.979 591.325C211.57 591.325 212.087 591.446 212.53 591.689C212.973 591.927 213.318 592.291 213.564 592.78C213.81 593.265 213.933 593.878 213.933 594.621V600.166H212.592V594.711C212.592 594.026 212.414 593.492 212.058 593.109C211.702 592.723 211.214 592.53 210.592 592.53C210.164 592.53 209.782 592.622 209.445 592.808C209.111 592.994 208.848 593.265 208.655 593.621C208.462 593.977 208.365 594.408 208.365 594.916ZM219.929 600.348C219.111 600.348 218.406 600.155 217.815 599.768C217.224 599.382 216.77 598.85 216.452 598.172C216.134 597.494 215.974 596.719 215.974 595.848C215.974 594.961 216.137 594.179 216.463 593.501C216.793 592.819 217.251 592.287 217.838 591.905C218.429 591.518 219.118 591.325 219.906 591.325C220.52 591.325 221.073 591.439 221.565 591.666C222.058 591.893 222.461 592.211 222.776 592.621C223.09 593.03 223.285 593.507 223.361 594.052H222.02C221.918 593.655 221.69 593.302 221.338 592.996C220.99 592.685 220.52 592.53 219.929 592.53C219.406 592.53 218.948 592.666 218.554 592.939C218.164 593.208 217.859 593.588 217.639 594.081C217.423 594.569 217.315 595.143 217.315 595.802C217.315 596.477 217.421 597.064 217.634 597.564C217.849 598.064 218.152 598.452 218.543 598.729C218.937 599.005 219.399 599.143 219.929 599.143C220.277 599.143 220.594 599.083 220.878 598.961C221.162 598.84 221.402 598.666 221.599 598.439C221.796 598.211 221.937 597.939 222.02 597.621H223.361C223.285 598.136 223.098 598.6 222.798 599.013C222.503 599.422 222.111 599.747 221.622 599.99C221.137 600.229 220.573 600.348 219.929 600.348ZM228.98 600.348C228.139 600.348 227.414 600.162 226.804 599.791C226.198 599.416 225.73 598.893 225.401 598.223C225.075 597.549 224.912 596.765 224.912 595.871C224.912 594.977 225.075 594.189 225.401 593.507C225.73 592.821 226.188 592.287 226.776 591.905C227.366 591.518 228.056 591.325 228.844 591.325C229.298 591.325 229.747 591.401 230.19 591.552C230.634 591.704 231.037 591.95 231.401 592.291C231.764 592.628 232.054 593.075 232.27 593.632C232.486 594.189 232.594 594.874 232.594 595.689V596.257H225.866V595.098H231.23C231.23 594.605 231.132 594.166 230.935 593.78C230.741 593.393 230.465 593.088 230.105 592.865C229.749 592.641 229.329 592.53 228.844 592.53C228.31 592.53 227.848 592.662 227.457 592.927C227.071 593.189 226.774 593.53 226.565 593.95C226.357 594.371 226.253 594.821 226.253 595.302V596.075C226.253 596.734 226.366 597.293 226.594 597.751C226.825 598.206 227.145 598.552 227.554 598.791C227.963 599.026 228.438 599.143 228.98 599.143C229.332 599.143 229.651 599.094 229.935 598.996C230.223 598.893 230.471 598.742 230.679 598.541C230.887 598.336 231.048 598.083 231.162 597.78L232.457 598.143C232.321 598.583 232.092 598.969 231.77 599.302C231.448 599.632 231.05 599.89 230.577 600.075C230.103 600.257 229.571 600.348 228.98 600.348Z" fill="#111C2D" fill-opacity="0.8"/>
<path d="M345.999 602.166C345.595 602.166 345.25 602.022 344.964 601.734C344.678 601.447 344.535 601.101 344.535 600.697C344.535 600.293 344.679 599.948 344.967 599.662C345.254 599.376 345.6 599.233 346.004 599.233C346.408 599.233 346.753 599.377 347.039 599.664C347.325 599.952 347.468 600.298 347.468 600.702C347.468 601.106 347.325 601.451 347.037 601.737C346.749 602.023 346.403 602.166 345.999 602.166ZM345.999 595.633C345.595 595.633 345.25 595.489 344.964 595.201C344.678 594.913 344.535 594.568 344.535 594.164C344.535 593.76 344.679 593.415 344.967 593.129C345.254 592.842 345.6 592.699 346.004 592.699C346.408 592.699 346.753 592.843 347.039 593.131C347.325 593.419 347.468 593.764 347.468 594.168C347.468 594.572 347.325 594.917 347.037 595.204C346.749 595.49 346.403 595.633 345.999 595.633ZM345.999 589.099C345.595 589.099 345.25 588.955 344.964 588.668C344.678 588.38 344.535 588.034 344.535 587.63C344.535 587.226 344.679 586.881 344.967 586.595C345.254 586.309 345.6 586.166 346.004 586.166C346.408 586.166 346.753 586.31 347.039 586.598C347.325 586.885 347.468 587.231 347.468 587.635C347.468 588.039 347.325 588.384 347.037 588.67C346.749 588.956 346.403 589.099 345.999 589.099Z" fill="#111C2D" fill-opacity="0.6"/>
<path d="M52.9702 703.559V676.287H54.7173V703.559H52.9702ZM58.0092 685.012C57.9098 684.081 57.4908 683.357 56.7521 682.838C56.0206 682.32 55.0689 682.061 53.897 682.061C53.0732 682.061 52.3665 682.185 51.777 682.434C51.1875 682.682 50.7365 683.02 50.424 683.446C50.1115 683.872 49.9517 684.358 49.9446 684.905C49.9446 685.36 50.0476 685.754 50.2536 686.088C50.4666 686.422 50.7543 686.706 51.1165 686.94C51.4787 687.167 51.88 687.359 52.3203 687.515C52.7607 687.672 53.2045 687.803 53.652 687.909L55.6974 688.421C56.5213 688.613 57.3132 688.872 58.0732 689.199C58.8402 689.525 59.5256 689.937 60.1293 690.434C60.7401 690.931 61.223 691.532 61.5781 692.235C61.9332 692.938 62.1108 693.762 62.1108 694.706C62.1108 695.985 61.7841 697.11 61.1307 698.083C60.4773 699.049 59.5327 699.806 58.2969 700.353C57.0682 700.892 55.5803 701.162 53.8331 701.162C52.1357 701.162 50.6619 700.9 49.4119 700.374C48.169 699.848 47.196 699.081 46.4929 698.073C45.7969 697.064 45.4205 695.836 45.3636 694.387H49.2521C49.3089 695.147 49.5433 695.779 49.9553 696.283C50.3672 696.787 50.9034 697.164 51.5639 697.412C52.2315 697.661 52.9773 697.785 53.8011 697.785C54.6605 697.785 55.4134 697.657 56.0597 697.402C56.7131 697.139 57.2244 696.777 57.5938 696.315C57.9631 695.846 58.1513 695.299 58.1584 694.674C58.1513 694.106 57.9844 693.637 57.6577 693.268C57.331 692.892 56.8729 692.579 56.2834 692.331C55.701 692.075 55.0192 691.848 54.2379 691.649L51.7557 691.01C49.9588 690.548 48.5384 689.848 47.4943 688.911C46.4574 687.966 45.9389 686.713 45.9389 685.15C45.9389 683.865 46.2869 682.739 46.983 681.773C47.6861 680.807 48.6413 680.058 49.8487 679.525C51.0561 678.985 52.4233 678.716 53.9503 678.716C55.4986 678.716 56.8551 678.985 58.0199 679.525C59.1918 680.058 60.1115 680.8 60.7791 681.752C61.4467 682.696 61.7912 683.783 61.8125 685.012H58.0092ZM65.1213 700.832V697.977L72.6959 690.551C73.4203 689.82 74.024 689.17 74.507 688.602C74.99 688.034 75.3522 687.483 75.5936 686.951C75.8351 686.418 75.9559 685.85 75.9559 685.246C75.9559 684.557 75.7996 683.968 75.4871 683.478C75.1746 682.98 74.7449 682.597 74.198 682.327C73.6512 682.057 73.0297 681.922 72.3337 681.922C71.6164 681.922 70.9878 682.071 70.448 682.37C69.9083 682.661 69.4892 683.076 69.1909 683.616C68.8998 684.156 68.7542 684.799 68.7542 685.544H64.9935C64.9935 684.159 65.3096 682.956 65.9417 681.933C66.5738 680.91 67.4438 680.118 68.5517 679.557C69.6668 678.996 70.9452 678.716 72.387 678.716C73.85 678.716 75.1355 678.989 76.2435 679.536C77.3515 680.083 78.2108 680.832 78.8216 681.784C79.4395 682.735 79.7485 683.822 79.7485 685.044C79.7485 685.86 79.5922 686.663 79.2797 687.451C78.9672 688.24 78.4168 689.113 77.6284 690.072C76.8472 691.031 75.7499 692.192 74.3365 693.556L70.5759 697.38V697.529H80.0787V700.832H65.1213ZM88.0245 697.849L87.886 699.021C87.7865 699.916 87.609 700.825 87.3533 701.748C87.1047 702.679 86.8419 703.534 86.565 704.316C86.288 705.097 86.0642 705.711 85.8938 706.159H83.2944C83.3938 705.725 83.5287 705.136 83.6992 704.39C83.8767 703.645 84.0472 702.806 84.2105 701.876C84.3739 700.946 84.484 700.001 84.5408 699.042L84.6154 697.849H88.0245ZM99.3234 701.13C97.9029 701.13 96.6316 700.864 95.5094 700.331C94.3873 699.792 93.496 699.053 92.8354 698.115C92.182 697.178 91.834 696.105 91.7914 694.898H95.6266C95.6977 695.793 96.0847 696.525 96.7879 697.093C97.491 697.654 98.3361 697.934 99.3234 697.934C100.098 697.934 100.786 697.757 101.39 697.402C101.994 697.047 102.47 696.553 102.818 695.921C103.166 695.289 103.336 694.568 103.329 693.758C103.336 692.934 103.162 692.203 102.807 691.564C102.452 690.924 101.965 690.424 101.348 690.061C100.73 689.692 100.019 689.507 99.2168 689.507C98.5634 689.5 97.9207 689.621 97.2886 689.87C96.6565 690.118 96.1558 690.445 95.7864 690.85L92.2175 690.264L93.3575 679.014H106.014V682.316H96.6281L95.9995 688.101H96.1273C96.5322 687.625 97.1039 687.231 97.8425 686.919C98.5812 686.599 99.3908 686.439 100.272 686.439C101.593 686.439 102.772 686.752 103.808 687.377C104.845 687.995 105.662 688.847 106.259 689.934C106.855 691.02 107.154 692.263 107.154 693.662C107.154 695.104 106.82 696.39 106.152 697.519C105.492 698.641 104.572 699.525 103.393 700.172C102.221 700.811 100.865 701.13 99.3234 701.13ZM110.423 700.832V697.977L117.997 690.551C118.722 689.82 119.325 689.17 119.808 688.602C120.291 688.034 120.653 687.483 120.895 686.951C121.136 686.418 121.257 685.85 121.257 685.246C121.257 684.557 121.101 683.968 120.788 683.478C120.476 682.98 120.046 682.597 119.499 682.327C118.952 682.057 118.331 681.922 117.635 681.922C116.918 681.922 116.289 682.071 115.749 682.37C115.209 682.661 114.79 683.076 114.492 683.616C114.201 684.156 114.055 684.799 114.055 685.544H110.295C110.295 684.159 110.611 682.956 111.243 681.933C111.875 680.91 112.745 680.118 113.853 679.557C114.968 678.996 116.246 678.716 117.688 678.716C119.151 678.716 120.437 678.989 121.545 679.536C122.653 680.083 123.512 680.832 124.123 681.784C124.741 682.735 125.05 683.822 125.05 685.044C125.05 685.86 124.893 686.663 124.581 687.451C124.268 688.24 123.718 689.113 122.93 690.072C122.148 691.031 121.051 692.192 119.638 693.556L115.877 697.38V697.529H125.38V700.832H110.423ZM136.33 678.716C137.374 678.723 138.39 678.907 139.377 679.27C140.371 679.625 141.266 680.207 142.061 681.017C142.857 681.819 143.489 682.895 143.958 684.245C144.426 685.594 144.661 687.263 144.661 689.252C144.668 691.127 144.469 692.803 144.064 694.28C143.667 695.75 143.095 696.993 142.349 698.009C141.603 699.025 140.705 699.799 139.654 700.331C138.603 700.864 137.42 701.13 136.106 701.13C134.728 701.13 133.507 700.86 132.441 700.321C131.383 699.781 130.527 699.042 129.874 698.105C129.221 697.167 128.819 696.095 128.67 694.887H132.559C132.757 695.754 133.162 696.443 133.773 696.954C134.391 697.458 135.169 697.711 136.106 697.711C137.619 697.711 138.784 697.054 139.6 695.74C140.417 694.426 140.826 692.6 140.826 690.264H140.676C140.328 690.889 139.877 691.429 139.324 691.883C138.77 692.331 138.141 692.675 137.438 692.917C136.742 693.158 136.003 693.279 135.222 693.279C133.944 693.279 132.793 692.973 131.77 692.363C130.755 691.752 129.949 690.914 129.352 689.848C128.762 688.783 128.464 687.565 128.457 686.194C128.457 684.774 128.784 683.499 129.437 682.37C130.098 681.233 131.017 680.338 132.196 679.685C133.375 679.025 134.753 678.701 136.33 678.716ZM136.341 681.912C135.574 681.912 134.881 682.1 134.263 682.476C133.652 682.846 133.169 683.35 132.814 683.989C132.466 684.621 132.292 685.328 132.292 686.109C132.299 686.883 132.473 687.586 132.814 688.218C133.162 688.85 133.635 689.351 134.231 689.721C134.835 690.09 135.524 690.275 136.298 690.275C136.873 690.275 137.409 690.164 137.907 689.944C138.404 689.724 138.837 689.419 139.206 689.028C139.583 688.63 139.874 688.179 140.08 687.675C140.293 687.171 140.396 686.638 140.389 686.077C140.389 685.331 140.211 684.642 139.856 684.01C139.508 683.378 139.029 682.87 138.418 682.487C137.814 682.103 137.122 681.912 136.341 681.912Z" fill="#111C2D"/>
<rect x="44.5" y="723.332" width="108" height="19" rx="9.5" stroke="#111C2D" stroke-opacity="0.1"/>
<path d="M53.3665 735.934V730.037H54.7045V735.934H53.3665ZM51.0866 733.654V732.316H56.9844V733.654H51.0866ZM58.5721 735.713V734.456L62.2752 728.605H63.3235V730.395H62.6843L60.1914 734.345V734.413H65.3605V735.713H58.5721ZM62.7355 737.332V735.329L62.7525 734.767V728.605H64.244V737.332H62.7355ZM66.602 737.332V736.19L69.6318 733.22C69.9216 732.927 70.1631 732.667 70.3562 732.44C70.5494 732.213 70.6943 731.993 70.7909 731.779C70.8875 731.566 70.9358 731.339 70.9358 731.098C70.9358 730.822 70.8733 730.586 70.7483 730.39C70.6233 730.191 70.4514 730.038 70.2327 729.93C70.0139 729.822 69.7653 729.768 69.4869 729.768C69.2 729.768 68.9486 729.828 68.7327 729.947C68.5167 730.064 68.3491 730.23 68.2298 730.446C68.1133 730.662 68.0551 730.919 68.0551 731.217H66.5508C66.5508 730.663 66.6773 730.181 66.9301 729.772C67.1829 729.363 67.531 729.047 67.9741 728.822C68.4202 728.598 68.9315 728.485 69.5082 728.485C70.0935 728.485 70.6077 728.595 71.0508 728.814C71.494 729.032 71.8378 729.332 72.0821 729.713C72.3292 730.093 72.4528 730.528 72.4528 731.017C72.4528 731.343 72.3903 731.664 72.2653 731.98C72.1403 732.295 71.9202 732.645 71.6048 733.028C71.2923 733.412 70.8534 733.876 70.2881 734.422L68.7838 735.951V736.011H72.5849V737.332H66.602ZM78.6013 735.696V735.235C78.6013 734.897 78.6723 734.586 78.8144 734.302C78.9592 734.018 79.1695 733.789 79.445 733.616C79.7206 733.443 80.0544 733.356 80.4465 733.356C80.8499 733.356 81.1879 733.443 81.4607 733.616C81.7334 733.787 81.9394 734.014 82.0786 734.298C82.2206 734.582 82.2916 734.895 82.2916 735.235V735.696C82.2916 736.034 82.2206 736.345 82.0786 736.629C81.9365 736.913 81.7277 737.142 81.4521 737.315C81.1794 737.488 80.8442 737.575 80.4465 737.575C80.0487 737.575 79.7121 737.488 79.4365 737.315C79.161 737.142 78.9521 736.913 78.8101 736.629C78.6709 736.345 78.6013 736.034 78.6013 735.696ZM79.7135 735.235V735.696C79.7135 735.92 79.7675 736.126 79.8754 736.314C79.9834 736.501 80.1737 736.595 80.4465 736.595C80.722 736.595 80.911 736.502 81.0132 736.318C81.1183 736.13 81.1709 735.923 81.1709 735.696V735.235C81.1709 735.008 81.1212 734.801 81.0217 734.613C80.9223 734.423 80.7306 734.328 80.4465 734.328C80.1794 734.328 79.9905 734.423 79.8797 734.613C79.7689 734.801 79.7135 735.008 79.7135 735.235ZM74.1652 730.701V730.241C74.1652 729.9 74.2377 729.588 74.3825 729.304C74.5274 729.02 74.7377 728.792 75.0132 728.622C75.2888 728.449 75.6226 728.362 76.0146 728.362C76.4152 728.362 76.7519 728.449 77.0246 728.622C77.3002 728.792 77.5075 729.02 77.6467 729.304C77.786 729.588 77.8556 729.9 77.8556 730.241V730.701C77.8556 731.042 77.7845 731.355 77.6425 731.639C77.5033 731.92 77.2959 732.146 77.0203 732.316C76.7448 732.487 76.4095 732.572 76.0146 732.572C75.6141 732.572 75.276 732.487 75.0004 732.316C74.7277 732.146 74.5203 731.919 74.3783 731.635C74.2362 731.35 74.1652 731.039 74.1652 730.701ZM75.286 730.241V730.701C75.286 730.929 75.3385 731.136 75.4436 731.324C75.5516 731.508 75.7419 731.6 76.0146 731.6C76.2874 731.6 76.4749 731.508 76.5771 731.324C76.6823 731.136 76.7348 730.929 76.7348 730.701V730.241C76.7348 730.014 76.6851 729.806 76.5857 729.619C76.4862 729.429 76.2959 729.333 76.0146 729.333C75.7448 729.333 75.5558 729.429 75.4479 729.619C75.3399 729.809 75.286 730.017 75.286 730.241ZM74.651 737.332L80.651 728.605H81.7163L75.7163 737.332H74.651ZM88.3563 728.605V737.332H86.8137V728.605H88.3563ZM91.7061 737.464C91.2914 737.464 90.9178 737.39 90.5854 737.243C90.2559 737.092 89.9945 736.87 89.8013 736.578C89.611 736.285 89.5158 735.924 89.5158 735.495C89.5158 735.126 89.584 734.821 89.7203 734.579C89.8567 734.338 90.0428 734.145 90.2786 734C90.5144 733.855 90.78 733.745 91.0755 733.672C91.3737 733.595 91.682 733.539 92.0002 733.505C92.3837 733.466 92.6948 733.43 92.9334 733.399C93.172 733.365 93.3453 733.314 93.4533 733.245C93.5641 733.174 93.6195 733.065 93.6195 732.917V732.892C93.6195 732.571 93.5243 732.322 93.334 732.146C93.1436 731.97 92.8695 731.882 92.5115 731.882C92.1337 731.882 91.834 731.964 91.6124 732.129C91.3936 732.294 91.2459 732.488 91.1692 732.713L89.7289 732.508C89.8425 732.11 90.03 731.778 90.2914 731.511C90.5527 731.241 90.8723 731.039 91.2502 730.906C91.628 730.77 92.0456 730.701 92.503 730.701C92.8184 730.701 93.1323 730.738 93.4448 730.812C93.7573 730.886 94.0428 731.008 94.3013 731.179C94.5598 731.346 94.7672 731.575 94.9235 731.865C95.0826 732.154 95.1621 732.517 95.1621 732.951V737.332H93.6791V736.433H93.628C93.5343 736.615 93.4022 736.785 93.2317 736.944C93.0641 737.1 92.8524 737.227 92.5968 737.324C92.3439 737.417 92.047 737.464 91.7061 737.464ZM92.1067 736.331C92.4164 736.331 92.6848 736.27 92.9121 736.147C93.1394 736.022 93.3141 735.858 93.4362 735.653C93.5612 735.449 93.6237 735.225 93.6237 734.984V734.213C93.5755 734.252 93.4931 734.289 93.3766 734.324C93.263 734.358 93.1351 734.387 92.9931 734.413C92.851 734.439 92.7104 734.461 92.5712 734.481C92.432 734.501 92.3112 734.518 92.209 734.532C91.9789 734.564 91.7729 734.615 91.5911 734.686C91.4093 734.757 91.2658 734.856 91.1607 734.984C91.0556 735.109 91.003 735.271 91.003 735.47C91.003 735.754 91.1067 735.968 91.3141 736.113C91.5215 736.258 91.7857 736.331 92.1067 736.331ZM101.767 732.517L100.36 732.67C100.321 732.528 100.251 732.395 100.151 732.27C100.055 732.145 99.9242 732.044 99.7594 731.967C99.5947 731.89 99.393 731.852 99.1543 731.852C98.8333 731.852 98.5634 731.922 98.3447 732.061C98.1287 732.2 98.0222 732.38 98.0251 732.602C98.0222 732.792 98.0918 732.947 98.2339 733.066C98.3787 733.186 98.6174 733.284 98.9498 733.36L100.066 733.599C100.686 733.733 101.146 733.944 101.447 734.234C101.751 734.524 101.904 734.903 101.907 735.372C101.904 735.784 101.784 736.147 101.545 736.463C101.309 736.775 100.981 737.02 100.561 737.196C100.14 737.372 99.6572 737.46 99.1117 737.46C98.3106 737.46 97.6657 737.292 97.177 736.957C96.6884 736.619 96.3972 736.149 96.3035 735.547L97.8077 735.402C97.8759 735.697 98.0208 735.92 98.2424 736.071C98.464 736.221 98.7523 736.297 99.1074 736.297C99.4739 736.297 99.768 736.221 99.9895 736.071C100.214 735.92 100.326 735.734 100.326 735.512C100.326 735.325 100.254 735.17 100.109 735.048C99.9668 734.926 99.7452 734.832 99.4441 734.767L98.3276 734.532C97.6998 734.402 97.2353 734.181 96.9341 733.872C96.633 733.559 96.4839 733.164 96.4867 732.687C96.4839 732.284 96.5932 731.934 96.8148 731.639C97.0393 731.341 97.3503 731.11 97.7481 730.949C98.1486 730.784 98.6103 730.701 99.133 730.701C99.9001 730.701 100.504 730.865 100.944 731.191C101.387 731.518 101.661 731.96 101.767 732.517ZM106.328 730.787V731.98H102.565V730.787H106.328ZM103.494 729.218H105.036V735.363C105.036 735.571 105.068 735.73 105.13 735.841C105.196 735.949 105.281 736.022 105.386 736.062C105.491 736.102 105.607 736.122 105.735 736.122C105.832 736.122 105.92 736.115 106 736.1C106.082 736.086 106.144 736.074 106.187 736.062L106.447 737.268C106.365 737.297 106.247 737.328 106.093 737.362C105.943 737.396 105.758 737.416 105.539 737.422C105.153 737.433 104.805 737.375 104.495 737.247C104.186 737.116 103.94 736.914 103.758 736.642C103.579 736.369 103.491 736.028 103.494 735.619V729.218ZM110.354 737.332V730.787H111.829V731.899H111.905C112.042 731.524 112.268 731.231 112.583 731.021C112.898 730.808 113.275 730.701 113.712 730.701C114.155 730.701 114.529 730.809 114.833 731.025C115.14 731.238 115.356 731.529 115.481 731.899H115.549C115.694 731.535 115.938 731.245 116.282 731.029C116.628 730.811 117.039 730.701 117.513 730.701C118.116 730.701 118.607 730.892 118.988 731.272C119.369 731.653 119.559 732.208 119.559 732.939V737.332H118.012V733.177C118.012 732.771 117.904 732.474 117.688 732.287C117.472 732.096 117.208 732.001 116.896 732.001C116.523 732.001 116.232 732.118 116.022 732.35C115.815 732.581 115.711 732.88 115.711 733.25V737.332H114.198V733.113C114.198 732.775 114.096 732.505 113.891 732.304C113.69 732.102 113.425 732.001 113.099 732.001C112.877 732.001 112.675 732.058 112.494 732.172C112.312 732.282 112.167 732.44 112.059 732.645C111.951 732.846 111.897 733.082 111.897 733.352V737.332H110.354ZM123.859 737.46C123.22 737.46 122.666 737.319 122.197 737.038C121.728 736.757 121.365 736.363 121.106 735.858C120.85 735.352 120.723 734.761 120.723 734.085C120.723 733.409 120.85 732.816 121.106 732.308C121.365 731.799 121.728 731.404 122.197 731.123C122.666 730.842 123.22 730.701 123.859 730.701C124.498 730.701 125.052 730.842 125.521 731.123C125.99 731.404 126.352 731.799 126.608 732.308C126.866 732.816 126.995 733.409 126.995 734.085C126.995 734.761 126.866 735.352 126.608 735.858C126.352 736.363 125.99 736.757 125.521 737.038C125.052 737.319 124.498 737.46 123.859 737.46ZM123.868 736.224C124.214 736.224 124.504 736.129 124.737 735.939C124.97 735.745 125.143 735.487 125.257 735.163C125.373 734.839 125.431 734.478 125.431 734.081C125.431 733.68 125.373 733.318 125.257 732.994C125.143 732.667 124.97 732.407 124.737 732.214C124.504 732.021 124.214 731.924 123.868 731.924C123.512 731.924 123.217 732.021 122.981 732.214C122.748 732.407 122.573 732.667 122.457 732.994C122.343 733.318 122.287 733.68 122.287 734.081C122.287 734.478 122.343 734.839 122.457 735.163C122.573 735.487 122.748 735.745 122.981 735.939C123.217 736.129 123.512 736.224 123.868 736.224ZM129.727 733.497V737.332H128.185V730.787H129.659V731.899H129.736C129.886 731.532 130.126 731.241 130.456 731.025C130.788 730.809 131.199 730.701 131.687 730.701C132.139 730.701 132.533 730.798 132.868 730.991C133.206 731.184 133.467 731.464 133.652 731.831C133.839 732.197 133.932 732.642 133.929 733.164V737.332H132.386V733.403C132.386 732.966 132.273 732.623 132.045 732.376C131.821 732.129 131.51 732.005 131.112 732.005C130.842 732.005 130.602 732.065 130.392 732.184C130.185 732.301 130.021 732.47 129.902 732.691C129.785 732.913 129.727 733.181 129.727 733.497ZM138.646 730.787V731.98H134.883V730.787H138.646ZM135.812 729.218H137.354V735.363C137.354 735.571 137.386 735.73 137.448 735.841C137.514 735.949 137.599 736.022 137.704 736.062C137.809 736.102 137.925 736.122 138.053 736.122C138.15 736.122 138.238 736.115 138.317 736.1C138.4 736.086 138.462 736.074 138.505 736.062L138.765 737.268C138.683 737.297 138.565 737.328 138.411 737.362C138.261 737.396 138.076 737.416 137.857 737.422C137.471 737.433 137.123 737.375 136.813 737.247C136.504 737.116 136.258 736.914 136.076 736.642C135.897 736.369 135.809 736.028 135.812 735.619V729.218ZM141.499 733.497V737.332H139.956V728.605H141.465V731.899H141.542C141.695 731.529 141.932 731.238 142.253 731.025C142.577 730.809 142.989 730.701 143.489 730.701C143.944 730.701 144.34 730.797 144.678 730.987C145.016 731.177 145.277 731.456 145.462 731.822C145.65 732.189 145.743 732.636 145.743 733.164V737.332H144.201V733.403C144.201 732.963 144.087 732.62 143.86 732.376C143.635 732.129 143.32 732.005 142.914 732.005C142.641 732.005 142.397 732.065 142.181 732.184C141.968 732.301 141.8 732.47 141.678 732.691C141.559 732.913 141.499 733.181 141.499 733.497Z" fill="#111C2D" fill-opacity="0.4"/>
<g clip-path="url(#clip0_1301_2104)">
<path d="M358 705.832C358 732.342 336.51 753.832 310 753.832C283.49 753.832 262 732.342 262 705.832C262 679.322 283.49 657.832 310 657.832C336.51 657.832 358 679.322 358 705.832ZM266.058 705.832C266.058 730.101 285.731 749.774 310 749.774C334.269 749.774 353.942 730.101 353.942 705.832C353.942 681.563 334.269 661.89 310 661.89C285.731 661.89 266.058 681.563 266.058 705.832Z" fill="#111C2D" fill-opacity="0.05"/>
<path d="M353.371 690.834C354.472 690.454 355.06 689.25 354.631 688.167C352.097 681.764 348.211 675.973 343.23 671.194C337.741 665.928 331.079 662.042 323.793 659.856C316.507 657.671 308.806 657.248 301.324 658.623C293.843 659.997 286.795 663.131 280.762 667.764C274.73 672.398 269.884 678.399 266.626 685.272C263.368 692.146 261.79 699.695 262.022 707.299C262.255 714.902 264.291 722.341 267.963 729.003C271.295 735.048 275.888 740.296 281.42 744.396C282.356 745.09 283.671 744.832 284.322 743.866V743.866C284.974 742.901 284.717 741.594 283.783 740.896C278.804 737.173 274.667 732.426 271.658 726.966C268.308 720.89 266.451 714.105 266.239 707.17C266.027 700.235 267.467 693.349 270.438 687.079C273.41 680.81 277.83 675.336 283.332 671.11C288.835 666.884 295.263 664.026 302.087 662.772C308.911 661.518 315.935 661.904 322.581 663.897C329.226 665.891 335.303 669.436 340.309 674.239C344.808 678.555 348.327 683.776 350.64 689.548C351.073 690.629 352.27 691.215 353.371 690.834V690.834Z" fill="#00CEB6"/>
</g>
<defs>
<clipPath id="clip0_1301_2104">
<rect width="96" height="96" fill="white" transform="translate(262 657.832)"/>
</clipPath>
</defs>
</svg>
